<svg width="174" height="69" viewBox="0 0 174 69" fill="none" xmlns="http://www.w3.org/2000/svg">
<path opacity="0.2" d="M47.8173 34.4558V32.1017H46.5515V34.4558H44.1974V35.7216H46.5515V38.0757H47.8173V35.7216H50.1714V34.4558H47.8173ZM56.9608 34.8107L58.061 31.7113H58.0847L59.1493 34.8107H56.9608ZM57.1383 29.6293L53.9443 38.0757H55.8134L56.4758 36.1948H59.6344L60.2732 38.0757H62.2014L59.0429 29.6293H57.1383ZM67.0938 35C67.0938 35.2523 67.0701 35.4968 67.0228 35.7334C66.9755 35.97 66.8966 36.1829 66.7862 36.3722C66.6758 36.5536 66.526 36.6995 66.3367 36.8099C66.1553 36.9203 65.9266 36.9755 65.6506 36.9755C65.3903 36.9755 65.1656 36.9203 64.9763 36.8099C64.7949 36.6916 64.6411 36.5418 64.5149 36.3604C64.3966 36.1711 64.3099 35.9582 64.2547 35.7216C64.1995 35.485 64.1719 35.2484 64.1719 35.0118C64.1719 34.7594 64.1955 34.5189 64.2429 34.2902C64.2981 34.0536 64.3809 33.8446 64.4913 33.6632C64.6096 33.4818 64.7634 33.3359 64.9526 33.2255C65.1419 33.1151 65.3746 33.0599 65.6506 33.0599C65.9266 33.0599 66.1553 33.1151 66.3367 33.2255C66.5181 33.3359 66.664 33.4818 66.7744 33.6632C66.8927 33.8367 66.9755 34.0418 67.0228 34.2784C67.0701 34.5071 67.0938 34.7476 67.0938 35ZM67.1175 37.2949V38.0757H68.7145V29.6293H67.0347V32.705H67.011C66.8217 32.4053 66.5615 32.1806 66.2302 32.0307C65.9069 31.873 65.5638 31.7941 65.2011 31.7941C64.7515 31.7941 64.3572 31.8848 64.0181 32.0662C63.679 32.2397 63.3951 32.4724 63.1663 32.7642C62.9455 33.056 62.776 33.3951 62.6577 33.7815C62.5473 34.1601 62.4921 34.5544 62.4921 34.9645C62.4921 35.3904 62.5473 35.8004 62.6577 36.1948C62.776 36.5891 62.9455 36.94 63.1663 37.2476C63.3951 37.5473 63.6829 37.7878 64.0299 37.9692C64.3769 38.1427 64.7791 38.2295 65.2365 38.2295C65.6388 38.2295 65.9976 38.1585 66.313 38.0165C66.6364 37.8667 66.8966 37.6262 67.0938 37.2949H67.1175ZM74.3256 35C74.3256 35.2523 74.302 35.4968 74.2547 35.7334C74.2073 35.97 74.1285 36.1829 74.0181 36.3722C73.9077 36.5536 73.7578 36.6995 73.5685 36.8099C73.3871 36.9203 73.1584 36.9755 72.8824 36.9755C72.6222 36.9755 72.3974 36.9203 72.2081 36.8099C72.0267 36.6916 71.8729 36.5418 71.7468 36.3604C71.6285 36.1711 71.5417 35.9582 71.4865 35.7216C71.4313 35.485 71.4037 35.2484 71.4037 35.0118C71.4037 34.7594 71.4274 34.5189 71.4747 34.2902C71.5299 34.0536 71.6127 33.8446 71.7231 33.6632C71.8414 33.4818 71.9952 33.3359 72.1845 33.2255C72.3737 33.1151 72.6064 33.0599 72.8824 33.0599C73.1584 33.0599 73.3871 33.1151 73.5685 33.2255C73.7499 33.3359 73.8958 33.4818 74.0062 33.6632C74.1245 33.8367 74.2073 34.0418 74.2547 34.2784C74.302 34.5071 74.3256 34.7476 74.3256 35ZM74.3493 37.2949V38.0757H75.9463V29.6293H74.2665V32.705H74.2428C74.0536 32.4053 73.7933 32.1806 73.4621 32.0307C73.1387 31.873 72.7957 31.7941 72.4329 31.7941C71.9834 31.7941 71.589 31.8848 71.2499 32.0662C70.9108 32.2397 70.6269 32.4724 70.3982 32.7642C70.1774 33.056 70.0078 33.3951 69.8895 33.7815C69.7791 34.1601 69.7239 34.5544 69.7239 34.9645C69.7239 35.3904 69.7791 35.8004 69.8895 36.1948C70.0078 36.5891 70.1774 36.94 70.3982 37.2476C70.6269 37.5473 70.9147 37.7878 71.2617 37.9692C71.6087 38.1427 72.011 38.2295 72.4684 38.2295C72.8706 38.2295 73.2294 38.1585 73.5449 38.0165C73.8682 37.8667 74.1285 37.6262 74.3256 37.2949H74.3493ZM86.3168 32.4684H88.1149C88.0597 31.9795 87.9256 31.5457 87.7127 31.1672C87.4998 30.7886 87.2277 30.4731 86.8964 30.2208C86.5731 29.9605 86.2024 29.7634 85.7845 29.6293C85.3744 29.4952 84.9367 29.4282 84.4714 29.4282C83.8247 29.4282 83.2411 29.5425 82.7206 29.7712C82.2079 30 81.7742 30.3154 81.4193 30.7176C81.0644 31.1198 80.7923 31.593 80.603 32.1372C80.4138 32.6735 80.3191 33.2571 80.3191 33.888C80.3191 34.5031 80.4138 35.0788 80.603 35.6151C80.7923 36.1435 81.0644 36.6049 81.4193 36.9992C81.7742 37.3935 82.2079 37.705 82.7206 37.9337C83.2411 38.1546 83.8247 38.265 84.4714 38.265C84.9919 38.265 85.469 38.1861 85.9028 38.0284C86.3365 37.8706 86.7151 37.6419 87.0384 37.3423C87.3617 37.0426 87.622 36.6798 87.8192 36.2539C88.0163 35.8281 88.1386 35.3509 88.1859 34.8225H86.3878C86.3168 35.3904 86.1196 35.8478 85.7963 36.1948C85.4808 36.5418 85.0392 36.7153 84.4714 36.7153C84.0534 36.7153 83.6985 36.6364 83.4067 36.4787C83.1149 36.3131 82.8783 36.0962 82.6969 35.8281C82.5155 35.5599 82.3814 35.2602 82.2947 34.929C82.2158 34.5899 82.1764 34.2429 82.1764 33.888C82.1764 33.5173 82.2158 33.1585 82.2947 32.8115C82.3814 32.4645 82.5155 32.1569 82.6969 31.8888C82.8783 31.6127 83.1149 31.3959 83.4067 31.2381C83.6985 31.0725 84.0534 30.9897 84.4714 30.9897C84.7001 30.9897 84.9169 31.0291 85.122 31.108C85.3349 31.179 85.5242 31.2815 85.6898 31.4156C85.8554 31.5496 85.9934 31.7074 86.1039 31.8888C86.2143 32.0623 86.2852 32.2555 86.3168 32.4684ZM95.0141 38.0757V31.9597H93.3343V35.1656C93.3343 35.7886 93.2318 36.2381 93.0267 36.5142C92.8217 36.7823 92.4904 36.9164 92.033 36.9164C91.6308 36.9164 91.3509 36.7941 91.1931 36.5497C91.0354 36.2973 90.9565 35.9187 90.9565 35.414V31.9597H89.2767V35.7216C89.2767 36.1001 89.3083 36.4471 89.3714 36.7626C89.4423 37.0702 89.5606 37.3344 89.7262 37.5552C89.8919 37.7681 90.1166 37.9337 90.4005 38.052C90.6923 38.1703 91.063 38.2295 91.5125 38.2295C91.8674 38.2295 92.2144 38.1506 92.5535 37.9929C92.8927 37.8352 93.1687 37.5788 93.3816 37.224H93.4171V38.0757H95.0141ZM96.289 31.9597V38.0757H97.9689V35.3194C97.9689 35.0433 97.9965 34.787 98.0517 34.5504C98.1069 34.3139 98.1976 34.1088 98.3238 33.9353C98.4578 33.7539 98.6313 33.612 98.8443 33.5094C99.0572 33.4069 99.3174 33.3556 99.625 33.3556C99.7275 33.3556 99.834 33.3635 99.9444 33.3793C100.055 33.3872 100.149 33.399 100.228 33.4148V31.8533C100.094 31.8138 99.972 31.7941 99.8616 31.7941C99.6487 31.7941 99.4436 31.8257 99.2465 31.8888C99.0493 31.9519 98.864 32.0425 98.6905 32.1608C98.517 32.2713 98.3632 32.4093 98.2291 32.5749C98.095 32.7326 97.9886 32.9061 97.9097 33.0954H97.8861V31.9597H96.289ZM100.887 31.9597V38.0757H102.567V35.3194C102.567 35.0433 102.594 34.787 102.65 34.5504C102.705 34.3139 102.795 34.1088 102.922 33.9353C103.056 33.7539 103.229 33.612 103.442 33.5094C103.655 33.4069 103.915 33.3556 104.223 33.3556C104.325 33.3556 104.432 33.3635 104.542 33.3793C104.653 33.3872 104.747 33.399 104.826 33.4148V31.8533C104.692 31.8138 104.57 31.7941 104.459 31.7941C104.247 31.7941 104.041 31.8257 103.844 31.8888C103.647 31.9519 103.462 32.0425 103.288 32.1608C103.115 32.2713 102.961 32.4093 102.827 32.5749C102.693 32.7326 102.586 32.9061 102.508 33.0954H102.484V31.9597H100.887ZM109.394 34.3612H106.661C106.669 34.2429 106.692 34.1088 106.732 33.959C106.779 33.8091 106.854 33.6672 106.957 33.5331C107.067 33.399 107.209 33.2886 107.383 33.2019C107.564 33.1072 107.789 33.0599 108.057 33.0599C108.467 33.0599 108.771 33.1703 108.968 33.3911C109.173 33.612 109.315 33.9353 109.394 34.3612ZM106.661 35.4258H111.073C111.105 34.9527 111.066 34.4992 110.955 34.0654C110.845 33.6317 110.663 33.2452 110.411 32.9061C110.166 32.567 109.851 32.2989 109.465 32.1017C109.078 31.8966 108.625 31.7941 108.104 31.7941C107.639 31.7941 107.213 31.8769 106.827 32.0425C106.448 32.2082 106.121 32.4369 105.845 32.7287C105.569 33.0126 105.356 33.3517 105.206 33.746C105.056 34.1403 104.981 34.5662 104.981 35.0236C104.981 35.4968 105.052 35.9306 105.194 36.3249C105.344 36.7192 105.553 37.0583 105.821 37.3423C106.089 37.6262 106.416 37.847 106.803 38.0047C107.189 38.1546 107.623 38.2295 108.104 38.2295C108.798 38.2295 109.39 38.0718 109.879 37.7563C110.368 37.4408 110.73 36.9164 110.967 36.1829H109.488C109.433 36.3722 109.283 36.5536 109.039 36.7271C108.794 36.8927 108.502 36.9755 108.163 36.9755C107.69 36.9755 107.327 36.8533 107.075 36.6088C106.823 36.3643 106.685 35.97 106.661 35.4258ZM112.07 31.9597V38.0757H113.749V34.8698C113.749 34.2468 113.852 33.8012 114.057 33.5331C114.262 33.2571 114.593 33.1191 115.051 33.1191C115.453 33.1191 115.733 33.2452 115.891 33.4976C116.048 33.7421 116.127 34.1167 116.127 34.6214V38.0757H117.807V34.3139C117.807 33.9353 117.772 33.5922 117.701 33.2847C117.638 32.9692 117.523 32.705 117.358 32.4921C117.192 32.2713 116.963 32.1017 116.671 31.9834C116.388 31.8572 116.021 31.7941 115.571 31.7941C115.216 31.7941 114.869 31.8769 114.53 32.0425C114.191 32.2003 113.915 32.4566 113.702 32.8115H113.667V31.9597H112.07ZM123.246 34.1127H124.89C124.867 33.7184 124.772 33.3793 124.606 33.0954C124.441 32.8036 124.224 32.5631 123.956 32.3738C123.696 32.1766 123.396 32.0307 123.057 31.9361C122.726 31.8414 122.379 31.7941 122.016 31.7941C121.519 31.7941 121.077 31.8769 120.691 32.0425C120.304 32.2082 119.977 32.4408 119.709 32.7405C119.441 33.0323 119.236 33.3832 119.094 33.7933C118.96 34.1956 118.893 34.6333 118.893 35.1064C118.893 35.5639 118.968 35.9858 119.117 36.3722C119.267 36.7508 119.476 37.0781 119.744 37.3541C120.013 37.6301 120.336 37.847 120.715 38.0047C121.101 38.1546 121.523 38.2295 121.98 38.2295C122.793 38.2295 123.459 38.0165 123.979 37.5907C124.5 37.1648 124.815 36.5457 124.926 35.7334H123.305C123.25 36.112 123.112 36.4156 122.891 36.6443C122.678 36.8651 122.371 36.9755 121.968 36.9755C121.708 36.9755 121.487 36.9164 121.306 36.7981C121.125 36.6798 120.979 36.5299 120.868 36.3486C120.766 36.1593 120.691 35.9503 120.644 35.7216C120.596 35.4929 120.573 35.2681 120.573 35.0473C120.573 34.8186 120.596 34.5899 120.644 34.3612C120.691 34.1246 120.77 33.9116 120.88 33.7224C120.998 33.5252 121.148 33.3675 121.33 33.2492C121.511 33.123 121.736 33.0599 122.004 33.0599C122.722 33.0599 123.136 33.4109 123.246 34.1127ZM128.891 38.8328L131.447 31.9597H129.708L128.371 36.1475H128.347L126.963 31.9597H125.177L127.318 37.6971C127.365 37.8154 127.389 37.9416 127.389 38.0757C127.389 38.2571 127.334 38.4227 127.223 38.5725C127.121 38.7224 126.959 38.8091 126.738 38.8328C126.573 38.8407 126.407 38.8367 126.242 38.821C126.076 38.8052 125.914 38.7894 125.757 38.7736V40.1577C125.93 40.1735 126.1 40.1853 126.265 40.1932C126.439 40.209 126.612 40.2169 126.786 40.2169C127.361 40.2169 127.811 40.1104 128.134 39.8975C128.458 39.6845 128.71 39.3296 128.891 38.8328Z" fill="#4C4C66"/>
<rect x="0.788668" y="1.14134" width="171.986" height="66.4283" rx="8.64478" stroke="#E2E2E8" stroke-width="0.909977" stroke-dasharray="3.64 3.64"/>
</svg>
