<svg width="173" height="69" viewBox="0 0 173 69" fill="none" xmlns="http://www.w3.org/2000/svg">
<rect x="0.0482178" y="0.686356" width="172.896" height="67.3383" rx="9.09977" fill="#53B9EA"/>
<path d="M55.5569 51.0933C55.5569 51.0933 58.0977 46.3834 61.0168 48.0052C63.9359 49.6269 64.3142 51.0933 66.9089 50.1203C69.5037 49.1472 69.6661 40.9236 71.9365 42.5453C74.2069 44.167 79.811 47.4105 84.6762 42.5453" stroke="url(#paint0_linear)" stroke-width="1.81995" stroke-linecap="round" stroke-linejoin="round"/>
<path opacity="0.5" d="M130.204 23.4251V21.6015H131.81C131.962 21.6015 132.108 21.616 132.246 21.6451C132.392 21.667 132.519 21.7107 132.628 21.7762C132.738 21.8417 132.825 21.9327 132.891 22.0492C132.956 22.1657 132.989 22.3149 132.989 22.4969C132.989 22.8245 132.891 23.0611 132.694 23.2067C132.497 23.3523 132.246 23.4251 131.941 23.4251H130.204ZM128.49 20.2693V28.0659H132.268C132.618 28.0659 132.956 28.0223 133.284 27.9349C133.619 27.8475 133.913 27.7129 134.168 27.5309C134.43 27.3489 134.638 27.1159 134.791 26.832C134.943 26.5408 135.02 26.1987 135.02 25.8056C135.02 25.3178 134.9 24.9029 134.66 24.5607C134.427 24.2113 134.07 23.9674 133.589 23.8291C133.939 23.6617 134.201 23.4469 134.376 23.1848C134.558 22.9228 134.649 22.5952 134.649 22.2021C134.649 21.8381 134.587 21.5323 134.463 21.2848C134.347 21.0373 134.179 20.8407 133.961 20.6951C133.742 20.5423 133.48 20.4331 133.174 20.3675C132.869 20.302 132.53 20.2693 132.159 20.2693H128.49ZM130.204 26.7337V24.5935H132.072C132.443 24.5935 132.741 24.6808 132.967 24.8555C133.193 25.023 133.306 25.3069 133.306 25.7073C133.306 25.9111 133.269 26.0786 133.196 26.2096C133.131 26.3406 133.04 26.4462 132.923 26.5263C132.807 26.5991 132.672 26.6537 132.519 26.6901C132.366 26.7192 132.206 26.7337 132.039 26.7337H130.204ZM137.904 21.7107V28.0659H139.618V21.7107H141.955V20.2693H135.567V21.7107H137.904ZM148.052 22.89H149.712C149.661 22.4386 149.537 22.0383 149.34 21.6888C149.144 21.3394 148.893 21.0482 148.587 20.8152C148.288 20.575 147.946 20.393 147.56 20.2693C147.182 20.1455 146.778 20.0836 146.348 20.0836C145.751 20.0836 145.213 20.1892 144.732 20.4003C144.259 20.6114 143.859 20.9026 143.531 21.2739C143.203 21.6451 142.952 22.0819 142.778 22.5842C142.603 23.0793 142.516 23.618 142.516 24.2004C142.516 24.7682 142.603 25.2996 142.778 25.7946C142.952 26.2824 143.203 26.7083 143.531 27.0722C143.859 27.4362 144.259 27.7238 144.732 27.9349C145.213 28.1387 145.751 28.2407 146.348 28.2407C146.829 28.2407 147.269 28.1679 147.67 28.0223C148.07 27.8767 148.419 27.6656 148.718 27.3889C149.016 27.1123 149.257 26.7774 149.439 26.3843C149.621 25.9912 149.733 25.5508 149.777 25.063H148.117C148.052 25.5872 147.87 26.0094 147.571 26.3297C147.28 26.65 146.873 26.8102 146.348 26.8102C145.963 26.8102 145.635 26.7374 145.366 26.5918C145.096 26.4389 144.878 26.2387 144.71 25.9912C144.543 25.7437 144.419 25.467 144.339 25.1613C144.266 24.8483 144.23 24.528 144.23 24.2004C144.23 23.8582 144.266 23.527 144.339 23.2067C144.419 22.8864 144.543 22.6024 144.71 22.3549C144.878 22.1001 145.096 21.8999 145.366 21.7543C145.635 21.6015 145.963 21.525 146.348 21.525C146.559 21.525 146.76 21.5614 146.949 21.6342C147.145 21.6997 147.32 21.7944 147.473 21.9181C147.626 22.0419 147.753 22.1875 147.855 22.3549C147.957 22.5151 148.023 22.6934 148.052 22.89Z" fill="white"/>
<path d="M70.0601 18.4818C70.4314 18.4818 70.7924 18.4509 71.143 18.389C71.4937 18.3271 71.8082 18.224 72.0867 18.0796C72.3754 17.9352 72.6178 17.7496 72.8137 17.5227C73.02 17.2958 73.1541 17.0174 73.2159 16.6873H74.6546V27.5161H72.7209V19.8741H70.0601V18.4818ZM78.9036 25.4277H81.0538V27.5161H78.9036V25.4277ZM84.6323 24.7779C84.6735 25.2214 84.8282 25.5824 85.0964 25.8608C85.3748 26.129 85.7461 26.263 86.2102 26.263C86.6846 26.263 87.061 26.1393 87.3395 25.8918C87.6282 25.6339 87.85 25.3194 88.0046 24.9481C88.1593 24.5665 88.2625 24.1643 88.314 23.7415C88.3759 23.3083 88.4223 22.9113 88.4533 22.5503L88.4223 22.5194C88.1851 22.9422 87.8603 23.2671 87.4477 23.494C87.0352 23.7105 86.5814 23.8188 86.0864 23.8188C85.5708 23.8188 85.1015 23.7312 84.6787 23.5558C84.2662 23.3805 83.9104 23.1382 83.6113 22.8288C83.3122 22.5091 83.0802 22.1275 82.9151 21.684C82.7501 21.2302 82.6676 20.7249 82.6676 20.168C82.6676 19.642 82.7501 19.1573 82.9151 18.7139C83.0802 18.2601 83.3225 17.8682 83.6422 17.5382C83.9619 17.1978 84.3538 16.9349 84.8179 16.7492C85.282 16.5636 85.808 16.4708 86.3958 16.4708C87.159 16.4708 87.7881 16.6203 88.2831 16.9194C88.7781 17.2082 89.1649 17.6104 89.4433 18.126C89.7321 18.6314 89.9332 19.2295 90.0466 19.9205C90.1601 20.6115 90.2168 21.3488 90.2168 22.1326C90.2168 22.7824 90.1446 23.4372 90.0002 24.0973C89.8662 24.7573 89.6393 25.3606 89.3196 25.9072C88.9999 26.4435 88.577 26.8818 88.0511 27.2221C87.5354 27.5625 86.896 27.7326 86.1328 27.7326C85.6997 27.7326 85.2923 27.6604 84.9107 27.5161C84.5291 27.3717 84.1888 27.1706 83.8897 26.9127C83.601 26.6549 83.3638 26.3455 83.1781 25.9846C82.9925 25.6236 82.8894 25.2214 82.8687 24.7779H84.6323ZM86.3185 17.9404C85.9988 17.9404 85.7203 18.0023 85.4831 18.126C85.2459 18.2395 85.05 18.3993 84.8953 18.6056C84.7406 18.8118 84.622 19.049 84.5395 19.3172C84.4673 19.5853 84.4312 19.8638 84.4312 20.1525C84.4312 20.4516 84.4673 20.7404 84.5395 21.0188C84.622 21.287 84.7406 21.5242 84.8953 21.7304C85.05 21.9367 85.2459 22.1069 85.4831 22.2409C85.7203 22.3647 85.9988 22.4266 86.3185 22.4266C86.6485 22.4266 86.9372 22.3647 87.1848 22.2409C87.4323 22.1172 87.6334 21.9522 87.7881 21.7459C87.9531 21.5293 88.0768 21.287 88.1593 21.0188C88.2418 20.7404 88.2831 20.4516 88.2831 20.1525C88.2831 19.8638 88.2418 19.5853 88.1593 19.3172C88.0768 19.049 87.9531 18.817 87.7881 18.621C87.6334 18.4148 87.4323 18.2498 87.1848 18.126C86.9372 18.0023 86.6485 17.9404 86.3185 17.9404ZM96.8481 19.4255C96.8068 18.982 96.647 18.6262 96.3685 18.3581C96.1004 18.0796 95.7343 17.9404 95.2702 17.9404C94.9505 17.9404 94.672 18.0023 94.4348 18.126C94.2079 18.2395 94.012 18.3942 93.847 18.5901C93.6923 18.786 93.5634 19.0129 93.4602 19.2708C93.3674 19.5183 93.2901 19.7813 93.2282 20.0597C93.1663 20.3382 93.1199 20.6166 93.0889 20.8951C93.0683 21.1632 93.0477 21.4159 93.0271 21.6531L93.058 21.684C93.2952 21.2509 93.6201 20.9312 94.0326 20.7249C94.4554 20.5083 94.9092 20.4 95.3939 20.4C95.9302 20.4 96.4098 20.4929 96.8326 20.6785C97.2554 20.8641 97.6112 21.122 97.9 21.452C98.1991 21.7717 98.426 22.1533 98.5807 22.5967C98.7354 23.0402 98.8127 23.5197 98.8127 24.0354C98.8127 24.5614 98.725 25.0512 98.5497 25.505C98.3847 25.9485 98.1424 26.3404 97.8226 26.6807C97.5029 27.0107 97.1214 27.2685 96.6779 27.4542C96.2344 27.6398 95.7446 27.7326 95.2083 27.7326C94.4142 27.7326 93.7593 27.5883 93.2436 27.2995C92.7383 27.0004 92.3361 26.5982 92.037 26.0929C91.7483 25.5772 91.5471 24.979 91.4337 24.2984C91.3203 23.6074 91.2635 22.8649 91.2635 22.0708C91.2635 21.421 91.3306 20.7662 91.4646 20.1061C91.609 19.4461 91.8411 18.8479 92.1608 18.3116C92.4805 17.7651 92.8982 17.3216 93.4138 16.9813C93.9398 16.6409 94.5843 16.4708 95.3475 16.4708C95.7807 16.4708 96.188 16.543 96.5696 16.6873C96.9512 16.8317 97.2864 17.0328 97.5751 17.2907C97.8742 17.5485 98.1166 17.8579 98.3022 18.2188C98.4878 18.5798 98.591 18.982 98.6116 19.4255H96.8481ZM95.1464 26.263C95.4661 26.263 95.7446 26.2011 95.9818 26.0774C96.219 25.9433 96.4149 25.7732 96.5696 25.5669C96.7346 25.3606 96.8532 25.1234 96.9254 24.8553C97.0079 24.5768 97.0492 24.2932 97.0492 24.0045C97.0492 23.7157 97.0079 23.4372 96.9254 23.1691C96.8532 22.901 96.7346 22.6689 96.5696 22.473C96.4149 22.2667 96.219 22.1017 95.9818 21.9779C95.7446 21.8542 95.4661 21.7923 95.1464 21.7923C94.8267 21.7923 94.5431 21.8542 94.2956 21.9779C94.0584 22.0914 93.8573 22.2512 93.6923 22.4575C93.5273 22.6535 93.4035 22.8855 93.321 23.1536C93.2385 23.4218 93.1972 23.7054 93.1972 24.0045C93.1972 24.3035 93.2385 24.5872 93.321 24.8553C93.4035 25.1234 93.5273 25.3658 93.6923 25.5824C93.8573 25.7886 94.0584 25.9536 94.2956 26.0774C94.5431 26.2011 94.8267 26.263 95.1464 26.263ZM99.8749 16.6873H107.285V18.157C106.718 18.7964 106.202 19.4616 105.738 20.1525C105.274 20.8332 104.866 21.5603 104.516 22.3337C104.175 23.0969 103.897 23.9065 103.68 24.7625C103.464 25.6185 103.319 26.5363 103.247 27.5161H101.314C101.375 26.6601 101.52 25.8144 101.747 24.979C101.984 24.1437 102.283 23.3341 102.644 22.5503C103.015 21.7665 103.443 21.0137 103.928 20.2918C104.413 19.5698 104.933 18.8943 105.49 18.2652H99.8749V16.6873ZM112.23 17.863C111.756 17.863 111.353 18.0074 111.023 18.2962C110.693 18.5746 110.528 18.982 110.528 19.5183C110.528 20.0339 110.688 20.431 111.008 20.7094C111.328 20.9776 111.735 21.1116 112.23 21.1116C112.725 21.1116 113.132 20.9776 113.452 20.7094C113.772 20.431 113.932 20.0339 113.932 19.5183C113.932 18.982 113.767 18.5746 113.437 18.2962C113.107 18.0074 112.704 17.863 112.23 17.863ZM112.23 27.7326C111.683 27.7326 111.173 27.6553 110.698 27.5006C110.234 27.3459 109.832 27.1242 109.492 26.8354C109.151 26.5363 108.883 26.1754 108.687 25.7525C108.502 25.3297 108.409 24.8553 108.409 24.3293C108.409 23.6487 108.584 23.0763 108.935 22.6122C109.296 22.1481 109.781 21.8387 110.389 21.684V21.6531C109.894 21.4674 109.512 21.1838 109.244 20.8023C108.986 20.4104 108.858 19.9514 108.858 19.4255C108.858 18.4973 109.146 17.7754 109.724 17.2597C110.312 16.7337 111.147 16.4708 112.23 16.4708C113.313 16.4708 114.143 16.7337 114.721 17.2597C115.308 17.7754 115.602 18.4973 115.602 19.4255C115.602 19.9514 115.468 20.4104 115.2 20.8023C114.942 21.1838 114.566 21.4674 114.071 21.6531V21.684C114.679 21.8387 115.159 22.1481 115.509 22.6122C115.87 23.0763 116.051 23.6487 116.051 24.3293C116.051 24.8553 115.953 25.3297 115.757 25.7525C115.571 26.1754 115.308 26.5363 114.968 26.8354C114.628 27.1242 114.22 27.3459 113.746 27.5006C113.282 27.6553 112.777 27.7326 112.23 27.7326ZM112.23 26.3404C112.818 26.3404 113.308 26.1651 113.7 25.8144C114.091 25.4638 114.287 24.9687 114.287 24.3293C114.287 23.7312 114.091 23.2671 113.7 22.9371C113.308 22.5967 112.818 22.4266 112.23 22.4266C111.642 22.4266 111.152 22.5967 110.76 22.9371C110.368 23.2671 110.172 23.7312 110.172 24.3293C110.172 24.9687 110.368 25.4638 110.76 25.8144C111.152 26.1651 111.642 26.3404 112.23 26.3404Z" fill="white"/>
<path d="M117.139 47.8525V45.6604H116.458V47.8525H114.276V48.5332H116.458V50.7253H117.139V48.5332H119.321V47.8525H117.139ZM123.361 50.7253V43.6284H122.71C122.663 43.8954 122.577 44.1156 122.45 44.2891C122.323 44.4626 122.166 44.5994 121.979 44.6995C121.799 44.7996 121.596 44.8696 121.369 44.9097C121.142 44.943 120.908 44.9597 120.668 44.9597V45.6404H122.51V50.7253H123.361ZM125.8 46.1409H126.651C126.644 45.9273 126.664 45.7171 126.711 45.5103C126.764 45.2967 126.847 45.1065 126.961 44.9397C127.074 44.7729 127.218 44.6394 127.391 44.5393C127.572 44.4326 127.785 44.3792 128.032 44.3792C128.219 44.3792 128.396 44.4092 128.562 44.4693C128.729 44.5293 128.873 44.6161 128.993 44.7295C129.12 44.843 129.22 44.9798 129.293 45.1399C129.367 45.2934 129.403 45.4669 129.403 45.6604C129.403 45.9073 129.363 46.1242 129.283 46.311C129.21 46.4979 129.096 46.6714 128.943 46.8316C128.796 46.9917 128.609 47.1519 128.382 47.312C128.155 47.4655 127.892 47.6357 127.592 47.8225C127.345 47.9693 127.108 48.1261 126.881 48.293C126.654 48.4598 126.45 48.6533 126.27 48.8735C126.09 49.0938 125.94 49.354 125.82 49.6543C125.706 49.9479 125.633 50.3049 125.6 50.7253H130.234V49.9746H126.591C126.631 49.7544 126.714 49.5609 126.841 49.394C126.974 49.2205 127.131 49.0604 127.311 48.9136C127.498 48.7668 127.702 48.63 127.922 48.5032C128.142 48.3697 128.362 48.2363 128.583 48.1028C128.803 47.9627 129.016 47.8158 129.223 47.6624C129.43 47.5089 129.614 47.3387 129.774 47.1519C129.934 46.9583 130.061 46.7415 130.154 46.5012C130.254 46.261 130.304 45.9841 130.304 45.6704C130.304 45.3368 130.244 45.0431 130.124 44.7896C130.011 44.536 129.854 44.3258 129.654 44.159C129.453 43.9854 129.216 43.8553 128.943 43.7686C128.676 43.6751 128.389 43.6284 128.082 43.6284C127.708 43.6284 127.375 43.6918 127.081 43.8186C126.787 43.9454 126.541 44.1222 126.34 44.3491C126.147 44.5694 126.003 44.8329 125.91 45.1399C125.816 45.4469 125.78 45.7805 125.8 46.1409ZM131.752 49.6143V50.7253H132.343C132.349 50.8054 132.343 50.8922 132.323 50.9856C132.309 51.079 132.279 51.1691 132.233 51.2559C132.186 51.3493 132.123 51.4327 132.043 51.5061C131.969 51.5862 131.876 51.6462 131.762 51.6863V52.1868C132.149 52.0733 132.43 51.8798 132.603 51.6062C132.777 51.3326 132.863 51.0056 132.863 50.6252V49.6143H131.752ZM138.412 44.4993V43.7486H134.909L134.248 47.4321L134.979 47.4722C135.145 47.272 135.336 47.1118 135.549 46.9917C135.769 46.8649 136.02 46.8015 136.3 46.8015C136.54 46.8015 136.757 46.8416 136.951 46.9216C137.151 47.0017 137.321 47.1152 137.461 47.262C137.601 47.4021 137.708 47.5723 137.781 47.7725C137.861 47.966 137.901 48.1795 137.901 48.4131C137.901 48.6934 137.861 48.9403 137.781 49.1538C137.701 49.3607 137.591 49.5342 137.451 49.6743C137.318 49.8145 137.157 49.9212 136.971 49.9946C136.79 50.0614 136.6 50.0947 136.4 50.0947C136.186 50.0947 135.99 50.0647 135.809 50.0046C135.636 49.9379 135.482 49.8478 135.349 49.7344C135.222 49.6143 135.119 49.4775 135.039 49.324C134.965 49.1638 134.922 48.9937 134.909 48.8135H134.058C134.064 49.1338 134.128 49.4207 134.248 49.6743C134.368 49.9279 134.531 50.1414 134.738 50.3149C134.945 50.4818 135.182 50.6119 135.449 50.7053C135.723 50.7921 136.013 50.8355 136.32 50.8355C136.734 50.8355 137.094 50.7721 137.401 50.6453C137.715 50.5118 137.975 50.335 138.182 50.1148C138.389 49.8945 138.542 49.6443 138.642 49.364C138.749 49.0771 138.802 48.7835 138.802 48.4832C138.802 48.0761 138.742 47.7224 138.622 47.4221C138.502 47.1152 138.339 46.8616 138.132 46.6614C137.925 46.4545 137.681 46.301 137.401 46.2009C137.121 46.1008 136.824 46.0508 136.51 46.0508C136.27 46.0508 136.026 46.0942 135.779 46.1809C135.539 46.261 135.342 46.3878 135.189 46.5613L135.169 46.5413L135.549 44.4993H138.412ZM140.941 45.6404C140.941 45.4869 140.951 45.3268 140.971 45.1599C140.991 44.9864 141.031 44.8296 141.091 44.6895C141.158 44.5427 141.248 44.4225 141.361 44.3291C141.475 44.229 141.625 44.179 141.812 44.179C142.005 44.179 142.156 44.229 142.262 44.3291C142.376 44.4225 142.463 44.5427 142.523 44.6895C142.583 44.8296 142.619 44.9864 142.633 45.1599C142.653 45.3268 142.663 45.4836 142.663 45.6304C142.663 45.7839 142.653 45.9474 142.633 46.1209C142.613 46.2944 142.569 46.4545 142.503 46.6013C142.442 46.7415 142.356 46.8582 142.242 46.9517C142.129 47.0451 141.975 47.0918 141.782 47.0918C141.595 47.0918 141.445 47.0451 141.331 46.9517C141.225 46.8516 141.141 46.7315 141.081 46.5913C141.021 46.4445 140.981 46.2877 140.961 46.1209C140.948 45.9474 140.941 45.7872 140.941 45.6404ZM140.19 45.6604C140.19 45.934 140.217 46.1909 140.27 46.4312C140.33 46.6714 140.424 46.8816 140.551 47.0618C140.677 47.242 140.844 47.3854 141.051 47.4922C141.258 47.5923 141.512 47.6423 141.812 47.6423C142.105 47.6423 142.352 47.5856 142.553 47.4722C142.753 47.3587 142.916 47.2119 143.043 47.0317C143.177 46.8449 143.27 46.6314 143.323 46.3911C143.383 46.1442 143.413 45.8906 143.413 45.6304C143.413 45.3568 143.387 45.0999 143.333 44.8596C143.287 44.6127 143.2 44.3992 143.073 44.219C142.953 44.0388 142.789 43.8954 142.583 43.7886C142.382 43.6818 142.126 43.6284 141.812 43.6284C141.505 43.6284 141.248 43.6852 141.041 43.7986C140.834 43.9054 140.667 44.0522 140.541 44.239C140.414 44.4259 140.324 44.6428 140.27 44.8897C140.217 45.1299 140.19 45.3868 140.19 45.6604ZM145.886 48.8435C145.886 48.69 145.896 48.5299 145.916 48.363C145.936 48.1895 145.976 48.0327 146.036 47.8926C146.103 47.7458 146.193 47.6257 146.306 47.5322C146.42 47.4321 146.57 47.3821 146.757 47.3821C146.95 47.3821 147.1 47.4321 147.207 47.5322C147.321 47.6257 147.407 47.7458 147.467 47.8926C147.527 48.0327 147.564 48.1895 147.577 48.363C147.598 48.5299 147.608 48.6867 147.608 48.8335C147.608 48.987 147.598 49.1505 147.577 49.324C147.557 49.4975 147.514 49.6576 147.447 49.8044C147.387 49.9446 147.301 50.0614 147.187 50.1548C147.074 50.2482 146.92 50.2949 146.727 50.2949C146.54 50.2949 146.39 50.2482 146.276 50.1548C146.169 50.0547 146.086 49.9346 146.026 49.7944C145.966 49.6476 145.926 49.4908 145.906 49.324C145.893 49.1505 145.886 48.9903 145.886 48.8435ZM145.135 48.8635C145.135 49.1371 145.162 49.394 145.215 49.6343C145.275 49.8745 145.369 50.0847 145.495 50.2649C145.622 50.4384 145.789 50.5785 145.996 50.6853C146.203 50.7854 146.456 50.8355 146.757 50.8355C147.05 50.8355 147.297 50.7821 147.497 50.6753C147.698 50.5619 147.861 50.415 147.988 50.2349C148.121 50.048 148.215 49.8345 148.268 49.5942C148.328 49.3473 148.358 49.0938 148.358 48.8335C148.358 48.5599 148.332 48.303 148.278 48.0628C148.231 47.8158 148.145 47.6023 148.018 47.4221C147.898 47.242 147.734 47.0985 147.527 46.9917C147.327 46.8849 147.07 46.8316 146.757 46.8316C146.45 46.8316 146.193 46.8883 145.986 47.0017C145.779 47.1085 145.612 47.2553 145.485 47.4421C145.359 47.629 145.269 47.8459 145.215 48.0928C145.162 48.333 145.135 48.5899 145.135 48.8635ZM146.536 43.4983L141.151 50.9356H142.012L147.387 43.4983H146.536Z" fill="white"/>
<path d="M105.247 46.7367L104.42 47.564C104.115 47.8686 103.621 47.8686 103.317 47.564C103.012 47.2594 103.012 46.7656 103.317 46.461L104.144 45.6337L101.966 43.4553H107.426V48.9151L105.247 46.7367Z" fill="white"/>
<g filter="url(#filter0_d)">
<path fill-rule="evenodd" clip-rule="evenodd" d="M22.1466 30.2248L22.1602 33.035H26.1923C26.9084 33.035 27.4887 32.4528 27.4851 31.7367L27.4841 31.5232C27.4807 30.807 26.8947 30.2248 26.1785 30.2248H22.6985H22.1466ZM27.9967 37.3067L27.9956 37.0811C27.9917 36.2823 27.3389 35.6337 26.5402 35.6337H26.2047H22.1728L22.188 38.7541H26.5554C27.3541 38.7541 28.0006 38.1044 27.9967 37.3067ZM29.2765 34.1167C30.0789 34.856 30.5877 35.9097 30.5934 37.0811L30.5945 37.3067C30.6054 39.5368 28.7992 41.3517 26.5682 41.3517H26.4695L26.4752 42.5453H23.8776L23.8717 41.3517H22.8071L22.8129 42.5453H20.2153L20.2095 41.3517H19.6031H18.3148L18.3022 38.7541H19.5904L19.5753 35.6337L19.5625 33.035L19.5488 30.2248H18.2605L18.2479 27.6262H20.1425L20.1354 26.1657H22.733L22.7401 27.6262H23.8049L23.7977 26.1657H26.3954L26.4025 27.6384C28.4418 27.7622 30.0717 29.4544 30.0818 31.5232L30.0828 31.7366C30.0872 32.6331 29.7839 33.4571 29.2765 34.1167Z" fill="white"/>
</g>
<defs>
<filter id="filter0_d" x="10.968" y="22.5258" width="26.9063" height="30.9392" filterUnits="userSpaceOnUse" color-interpolation-filters="sRGB">
<feFlood flood-opacity="0" result="BackgroundImageFix"/>
<feColorMatrix in="SourceAlpha" type="matrix" values="0 0 0 0 0 0 0 0 0 0 0 0 0 0 0 0 0 0 127 0" result="hardAlpha"/>
<feOffset dy="3.63991"/>
<feGaussianBlur stdDeviation="3.63991"/>
<feColorMatrix type="matrix" values="0 0 0 0 0 0 0 0 0 0 0 0 0 0 0 0 0 0 0.0744452 0"/>
<feBlend mode="normal" in2="BackgroundImageFix" result="effect1_dropShadow"/>
<feBlend mode="normal" in="SourceGraphic" in2="effect1_dropShadow" result="shape"/>
</filter>
<linearGradient id="paint0_linear" x1="73.9683" y1="40.183" x2="68.0221" y2="55.3007" gradientUnits="userSpaceOnUse">
<stop stop-color="#AAFFF7"/>
<stop offset="1" stop-color="white"/>
</linearGradient>
</defs>
</svg>
