<svg width="174" height="74" viewBox="0 0 174 74" fill="none" xmlns="http://www.w3.org/2000/svg">
<path fill-rule="evenodd" clip-rule="evenodd" d="M26.9777 30.357L19.2529 33.6578L26.9777 37.9456L34.6996 33.6578L26.9777 30.357Z" fill="#010101" fill-opacity="0.6"/>
<path fill-rule="evenodd" clip-rule="evenodd" d="M19.2529 33.6578L26.9778 37.9456V21.6158L19.2529 33.6578Z" fill="#6F6C99"/>
<path fill-rule="evenodd" clip-rule="evenodd" d="M19.2529 35.0328L26.9778 45.2574V39.3207L19.2529 35.0328Z" fill="#6F6C99"/>
<path fill-rule="evenodd" clip-rule="evenodd" d="M26.9777 21.6158V37.9456L34.6995 33.6578L26.9777 21.6158Z" fill="#4C4C66"/>
<path fill-rule="evenodd" clip-rule="evenodd" d="M26.9777 39.3207V45.2574L34.7056 35.0328L26.9777 39.3207Z" fill="#4C4C66"/>
<g filter="url(#filter0_f)">
<ellipse cx="95.9722" cy="52.0237" rx="7.14227" ry="3.09709" transform="rotate(29 95.9722 52.0237)" fill="url(#paint0_linear)"/>
</g>
<path d="M95.6911 52.7028C95.6911 52.7028 93.1503 47.4412 90.2312 49.0629C87.3121 50.6846 84.5908 50.7074 80.1312 45.7902C75.6716 40.8731 72.3469 50.6554 67.4818 45.7902" stroke="url(#paint1_linear)" stroke-width="1.81995" stroke-linecap="round" stroke-linejoin="round"/>
<path opacity="0.3" d="M123.733 20.2693V28.066H129.652V26.6246H125.447V24.7136H129.226V23.3814H125.447V21.7107H129.564V20.2693H123.733ZM132.539 21.7107V28.066H134.254V21.7107H136.59V20.2693H130.202V21.7107H132.539ZM137.489 20.2693V28.066H139.204V24.7027H142.36V28.066H144.074V20.2693H142.36V23.2613H139.204V20.2693H137.489Z" fill="#4C4C66"/>
<path opacity="0.7" d="M64.5562 21.341H65.8711C65.8608 21.011 65.8917 20.6861 65.9639 20.3664C66.0464 20.0364 66.1753 19.7424 66.3506 19.4846C66.526 19.2268 66.7477 19.0205 67.0158 18.8658C67.2943 18.7008 67.6243 18.6183 68.0059 18.6183C68.2946 18.6183 68.5679 18.6647 68.8258 18.7575C69.0836 18.8504 69.3053 18.9844 69.491 19.1598C69.6869 19.3351 69.8416 19.5465 69.9551 19.794C70.0685 20.0312 70.1252 20.2994 70.1252 20.5984C70.1252 20.98 70.0633 21.3152 69.9396 21.604C69.8261 21.8927 69.6508 22.1609 69.4136 22.4084C69.1867 22.6559 68.898 22.9034 68.5473 23.1509C68.1967 23.3881 67.7893 23.6511 67.3252 23.9399C66.9436 24.1668 66.5775 24.4091 66.2269 24.6669C65.8762 24.9248 65.5617 25.2238 65.2832 25.5642C65.0048 25.9045 64.7727 26.3067 64.5871 26.7708C64.4118 27.2246 64.2983 27.7763 64.2468 28.4261H71.4092V27.2658H65.7783C65.8401 26.9255 65.969 26.6264 66.165 26.3686C66.3713 26.1005 66.6136 25.8529 66.8921 25.6261C67.1808 25.3992 67.4954 25.1877 67.8357 24.9918C68.176 24.7855 68.5164 24.5793 68.8567 24.373C69.197 24.1564 69.5271 23.9296 69.8468 23.6924C70.1665 23.4552 70.4501 23.1922 70.6976 22.9034C70.9451 22.6043 71.1411 22.2691 71.2854 21.8979C71.4401 21.5266 71.5175 21.0986 71.5175 20.6139C71.5175 20.0982 71.4247 19.6445 71.239 19.2526C71.0637 18.8607 70.8213 18.5358 70.512 18.278C70.2026 18.0099 69.8365 17.8087 69.4136 17.6747C69.0011 17.5303 68.5576 17.4581 68.0832 17.4581C67.5057 17.4581 66.99 17.5561 66.5363 17.752C66.0825 17.948 65.7009 18.2213 65.3915 18.5719C65.0924 18.9122 64.8707 19.3196 64.7263 19.794C64.5819 20.2684 64.5252 20.7841 64.5562 21.341ZM75.8438 22.1609V23.2747C76.0913 23.2437 76.3543 23.2283 76.6327 23.2283C76.9627 23.2283 77.267 23.2747 77.5454 23.3675C77.8342 23.45 78.0817 23.5841 78.288 23.7697C78.4942 23.945 78.6592 24.1668 78.783 24.4349C78.9068 24.6927 78.9686 24.9918 78.9686 25.3321C78.9686 25.6621 78.9016 25.9612 78.7675 26.2294C78.6438 26.4872 78.4736 26.7089 78.257 26.8946C78.0405 27.0699 77.7878 27.2091 77.499 27.3122C77.2103 27.4051 76.906 27.4515 76.5863 27.4515C75.8335 27.4515 75.2611 27.2297 74.8692 26.7863C74.4773 26.3325 74.271 25.7498 74.2504 25.0382H72.9355C72.9252 25.6054 73.0025 26.1108 73.1675 26.5542C73.3429 26.9977 73.5904 27.3741 73.9101 27.6835C74.2298 27.9826 74.6165 28.2095 75.0703 28.3642C75.5241 28.5189 76.0294 28.5962 76.5863 28.5962C77.102 28.5962 77.5867 28.5292 78.0405 28.3951C78.5045 28.2507 78.9068 28.0393 79.2471 27.7609C79.5874 27.4824 79.8556 27.1369 80.0515 26.7244C80.2578 26.3016 80.3609 25.8168 80.3609 25.2703C80.3609 24.6102 80.1959 24.0378 79.8659 23.5531C79.5462 23.0684 79.0511 22.7539 78.3808 22.6095V22.5785C78.8139 22.3826 79.1749 22.0938 79.4637 21.7122C79.7524 21.3307 79.8968 20.8924 79.8968 20.3973C79.8968 19.892 79.8091 19.4537 79.6338 19.0824C79.4688 18.7111 79.2368 18.4069 78.9377 18.1697C78.6386 17.9325 78.2828 17.7572 77.8703 17.6437C77.4681 17.52 77.0298 17.4581 76.5554 17.4581C76.0088 17.4581 75.5241 17.5458 75.1012 17.7211C74.6887 17.8964 74.3432 18.1388 74.0648 18.4482C73.7863 18.7575 73.5697 19.1288 73.415 19.562C73.2707 19.9951 73.1882 20.4747 73.1675 21.0006H74.4824C74.4824 20.6809 74.5237 20.3767 74.6062 20.0879C74.6887 19.7992 74.8125 19.5465 74.9775 19.3299C75.1528 19.1133 75.3694 18.9432 75.6272 18.8194C75.8953 18.6854 76.2047 18.6183 76.5554 18.6183C77.1123 18.6183 77.5764 18.7679 77.9476 19.0669C78.3189 19.3557 78.5045 19.794 78.5045 20.3819C78.5045 20.6706 78.4478 20.9285 78.3344 21.1553C78.2209 21.3822 78.0662 21.573 77.8703 21.7277C77.6847 21.8721 77.4629 21.9855 77.2051 22.068C76.9576 22.1402 76.6946 22.1763 76.4161 22.1763H76.1377C76.0861 22.1763 76.0346 22.1763 75.983 22.1763C75.9417 22.1763 75.8953 22.1712 75.8438 22.1609ZM82.3513 26.7089V28.4261H84.0684V26.7089H82.3513ZM86.0535 21.341H87.3684C87.3581 21.011 87.389 20.6861 87.4612 20.3664C87.5437 20.0364 87.6726 19.7424 87.8479 19.4846C88.0233 19.2268 88.245 19.0205 88.5131 18.8658C88.7916 18.7008 89.1216 18.6183 89.5032 18.6183C89.792 18.6183 90.0653 18.6647 90.3231 18.7575C90.5809 18.8504 90.8026 18.9844 90.9883 19.1598C91.1842 19.3351 91.3389 19.5465 91.4524 19.794C91.5658 20.0312 91.6225 20.2994 91.6225 20.5984C91.6225 20.98 91.5607 21.3152 91.4369 21.604C91.3234 21.8927 91.1481 22.1609 90.9109 22.4084C90.684 22.6559 90.3953 22.9034 90.0446 23.1509C89.694 23.3881 89.2866 23.6511 88.8225 23.9399C88.4409 24.1668 88.0748 24.4091 87.7242 24.6669C87.3735 24.9248 87.059 25.2238 86.7805 25.5642C86.5021 25.9045 86.27 26.3067 86.0844 26.7708C85.9091 27.2246 85.7956 27.7763 85.7441 28.4261H92.9065V27.2658H87.2756C87.3374 26.9255 87.4664 26.6264 87.6623 26.3686C87.8686 26.1005 88.1109 25.8529 88.3894 25.6261C88.6781 25.3992 88.9927 25.1877 89.333 24.9918C89.6734 24.7855 90.0137 24.5793 90.354 24.373C90.6944 24.1564 91.0244 23.9296 91.3441 23.6924C91.6638 23.4552 91.9474 23.1922 92.1949 22.9034C92.4424 22.6043 92.6384 22.2691 92.7827 21.8979C92.9374 21.5266 93.0148 21.0986 93.0148 20.6139C93.0148 20.0982 92.922 19.6445 92.7363 19.2526C92.561 18.8607 92.3187 18.5358 92.0093 18.278C91.6999 18.0099 91.3338 17.8087 90.9109 17.6747C90.4984 17.5303 90.0549 17.4581 89.5805 17.4581C89.003 17.4581 88.4874 17.5561 88.0336 17.752C87.5798 17.948 87.1982 18.2213 86.8888 18.5719C86.5898 18.9122 86.368 19.3196 86.2236 19.794C86.0793 20.2684 86.0225 20.7841 86.0535 21.341ZM97.3411 22.1609V23.2747C97.5886 23.2437 97.8516 23.2283 98.13 23.2283C98.4601 23.2283 98.7643 23.2747 99.0427 23.3675C99.3315 23.45 99.579 23.5841 99.7853 23.7697C99.9915 23.945 100.157 24.1668 100.28 24.4349C100.404 24.6927 100.466 24.9918 100.466 25.3321C100.466 25.6621 100.399 25.9612 100.265 26.2294C100.141 26.4872 99.9709 26.7089 99.7543 26.8946C99.5378 27.0699 99.2851 27.2091 98.9963 27.3122C98.7076 27.4051 98.4033 27.4515 98.0836 27.4515C97.3308 27.4515 96.7584 27.2297 96.3665 26.7863C95.9746 26.3325 95.7683 25.7498 95.7477 25.0382H94.4328C94.4225 25.6054 94.4998 26.1108 94.6648 26.5542C94.8402 26.9977 95.0877 27.3741 95.4074 27.6835C95.7271 27.9826 96.1138 28.2095 96.5676 28.3642C97.0214 28.5189 97.5267 28.5962 98.0836 28.5962C98.5993 28.5962 99.084 28.5292 99.5378 28.3951C100.002 28.2507 100.404 28.0393 100.744 27.7609C101.085 27.4824 101.353 27.1369 101.549 26.7244C101.755 26.3016 101.858 25.8168 101.858 25.2703C101.858 24.6102 101.693 24.0378 101.363 23.5531C101.043 23.0684 100.548 22.7539 99.8781 22.6095V22.5785C100.311 22.3826 100.672 22.0938 100.961 21.7122C101.25 21.3307 101.394 20.8924 101.394 20.3973C101.394 19.892 101.306 19.4537 101.131 19.0824C100.966 18.7111 100.734 18.4069 100.435 18.1697C100.136 17.9325 99.7801 17.7572 99.3676 17.6437C98.9654 17.52 98.5271 17.4581 98.0527 17.4581C97.5061 17.4581 97.0214 17.5458 96.5985 17.7211C96.186 17.8964 95.8405 18.1388 95.5621 18.4482C95.2836 18.7575 95.0671 19.1288 94.9124 19.562C94.768 19.9951 94.6855 20.4747 94.6648 21.0006H95.9798C95.9798 20.6809 96.021 20.3767 96.1035 20.0879C96.186 19.7992 96.3098 19.5465 96.4748 19.3299C96.6501 19.1133 96.8667 18.9432 97.1245 18.8194C97.3927 18.6854 97.702 18.6183 98.0527 18.6183C98.6096 18.6183 99.0737 18.7679 99.445 19.0669C99.8162 19.3557 100.002 19.794 100.002 20.3819C100.002 20.6706 99.9451 20.9285 99.8317 21.1553C99.7182 21.3822 99.5636 21.573 99.3676 21.7277C99.182 21.8721 98.9602 21.9855 98.7024 22.068C98.4549 22.1402 98.1919 22.1763 97.9135 22.1763H97.635C97.5834 22.1763 97.5319 22.1763 97.4803 22.1763C97.4391 22.1763 97.3927 22.1712 97.3411 22.1609ZM107.809 24.6979H104.127L107.778 19.3299H107.809V24.6979ZM109.046 24.6979V17.4581H107.994L102.998 24.5896V25.8581H107.809V28.4261H109.046V25.8581H110.531V24.6979H109.046Z" fill="#4C4C66"/>
<path d="M117.121 47.5422V48.343H120.014V47.5422H117.121ZM125.215 44.4993V43.7486H121.712L121.051 47.4321L121.782 47.4722C121.949 47.272 122.139 47.1118 122.353 46.9917C122.573 46.8649 122.823 46.8015 123.103 46.8015C123.344 46.8015 123.56 46.8416 123.754 46.9216C123.954 47.0017 124.124 47.1152 124.264 47.262C124.405 47.4021 124.511 47.5723 124.585 47.7725C124.665 47.966 124.705 48.1795 124.705 48.4131C124.705 48.6934 124.665 48.9403 124.585 49.1538C124.505 49.3607 124.395 49.5342 124.254 49.6743C124.121 49.8145 123.961 49.9212 123.774 49.9946C123.594 50.0614 123.404 50.0947 123.203 50.0947C122.99 50.0947 122.793 50.0647 122.613 50.0046C122.439 49.9379 122.286 49.8478 122.152 49.7344C122.026 49.6143 121.922 49.4775 121.842 49.324C121.769 49.1638 121.725 48.9937 121.712 48.8135H120.861C120.868 49.1338 120.931 49.4207 121.051 49.6743C121.171 49.9279 121.335 50.1414 121.542 50.3149C121.749 50.4818 121.986 50.6119 122.253 50.7053C122.526 50.7921 122.816 50.8355 123.123 50.8355C123.537 50.8355 123.897 50.7721 124.204 50.6453C124.518 50.5118 124.778 50.335 124.985 50.1147C125.192 49.8945 125.346 49.6443 125.446 49.364C125.552 49.0771 125.606 48.7835 125.606 48.4832C125.606 48.0761 125.546 47.7224 125.426 47.4221C125.305 47.1152 125.142 46.8616 124.935 46.6614C124.728 46.4545 124.485 46.301 124.204 46.2009C123.924 46.1008 123.627 46.0508 123.314 46.0508C123.073 46.0508 122.83 46.0942 122.583 46.1809C122.343 46.261 122.146 46.3878 121.992 46.5613L121.972 46.5413L122.353 44.4993H125.215ZM126.904 49.6143V50.7253H128.015V49.6143H126.904ZM129.299 46.1409H130.15C130.143 45.9273 130.163 45.7171 130.21 45.5103C130.264 45.2967 130.347 45.1065 130.46 44.9397C130.574 44.7729 130.717 44.6394 130.891 44.5393C131.071 44.4326 131.284 44.3792 131.531 44.3792C131.718 44.3792 131.895 44.4092 132.062 44.4693C132.229 44.5293 132.372 44.6161 132.492 44.7295C132.619 44.8429 132.719 44.9797 132.793 45.1399C132.866 45.2934 132.903 45.4669 132.903 45.6604C132.903 45.9073 132.863 46.1242 132.783 46.311C132.709 46.4979 132.596 46.6714 132.442 46.8316C132.295 46.9917 132.109 47.1519 131.882 47.312C131.655 47.4655 131.391 47.6357 131.091 47.8225C130.844 47.9693 130.607 48.1261 130.38 48.293C130.153 48.4598 129.95 48.6533 129.77 48.8735C129.59 49.0938 129.439 49.354 129.319 49.6543C129.206 49.9479 129.132 50.3049 129.099 50.7253H133.734V49.9746H130.09C130.13 49.7544 130.213 49.5609 130.34 49.394C130.474 49.2205 130.631 49.0604 130.811 48.9136C130.998 48.7668 131.201 48.63 131.421 48.5032C131.642 48.3697 131.862 48.2363 132.082 48.1028C132.302 47.9627 132.516 47.8158 132.723 47.6624C132.929 47.5089 133.113 47.3387 133.273 47.1519C133.433 46.9583 133.56 46.7415 133.653 46.5012C133.754 46.261 133.804 45.9841 133.804 45.6704C133.804 45.3368 133.744 45.0431 133.623 44.7896C133.51 44.536 133.353 44.3258 133.153 44.159C132.953 43.9854 132.716 43.8553 132.442 43.7686C132.175 43.6751 131.888 43.6284 131.581 43.6284C131.208 43.6284 130.874 43.6918 130.58 43.8186C130.287 43.9454 130.04 44.1222 129.84 44.3491C129.646 44.5693 129.503 44.8329 129.409 45.1399C129.316 45.4469 129.279 45.7805 129.299 46.1409ZM136.603 46.6714V47.3921C136.763 47.3721 136.933 47.3621 137.113 47.3621C137.327 47.3621 137.524 47.3921 137.704 47.4522C137.891 47.5055 138.051 47.5923 138.185 47.7124C138.318 47.8259 138.425 47.9693 138.505 48.1428C138.585 48.3097 138.625 48.5032 138.625 48.7234C138.625 48.9369 138.582 49.1305 138.495 49.304C138.415 49.4708 138.305 49.6143 138.165 49.7344C138.024 49.8478 137.861 49.9379 137.674 50.0046C137.487 50.0647 137.29 50.0947 137.083 50.0947C136.596 50.0947 136.226 49.9513 135.972 49.6643C135.719 49.3707 135.585 48.9937 135.572 48.5332H134.721C134.714 48.9002 134.765 49.2272 134.871 49.5142C134.985 49.8011 135.145 50.0447 135.352 50.2449C135.559 50.4384 135.809 50.5852 136.102 50.6853C136.396 50.7854 136.723 50.8355 137.083 50.8355C137.417 50.8355 137.731 50.7921 138.024 50.7053C138.325 50.6119 138.585 50.4751 138.805 50.2949C139.025 50.1147 139.199 49.8912 139.326 49.6243C139.459 49.3507 139.526 49.037 139.526 48.6834C139.526 48.2563 139.419 47.8859 139.206 47.5723C138.999 47.2586 138.678 47.0551 138.245 46.9617V46.9417C138.525 46.8149 138.758 46.628 138.945 46.3811C139.132 46.1342 139.226 45.8506 139.226 45.5303C139.226 45.2033 139.169 44.9197 139.055 44.6795C138.949 44.4392 138.798 44.2424 138.605 44.0889C138.411 43.9354 138.181 43.822 137.914 43.7486C137.654 43.6685 137.37 43.6284 137.063 43.6284C136.71 43.6284 136.396 43.6852 136.123 43.7986C135.856 43.912 135.632 44.0689 135.452 44.2691C135.272 44.4693 135.132 44.7095 135.031 44.9898C134.938 45.27 134.885 45.5803 134.871 45.9207H135.722C135.722 45.7138 135.749 45.5169 135.802 45.3301C135.856 45.1432 135.936 44.9797 136.042 44.8396C136.156 44.6995 136.296 44.5894 136.463 44.5093C136.636 44.4225 136.837 44.3792 137.063 44.3792C137.424 44.3792 137.724 44.4759 137.964 44.6694C138.205 44.8563 138.325 45.1399 138.325 45.5203C138.325 45.7071 138.288 45.874 138.215 46.0208C138.141 46.1676 138.041 46.291 137.914 46.3911C137.794 46.4845 137.651 46.558 137.484 46.6113C137.324 46.6581 137.154 46.6814 136.973 46.6814H136.793C136.76 46.6814 136.726 46.6814 136.693 46.6814C136.666 46.6814 136.636 46.6781 136.603 46.6714ZM141.655 45.6404C141.655 45.4869 141.665 45.3268 141.685 45.1599C141.705 44.9864 141.745 44.8296 141.805 44.6895C141.871 44.5427 141.962 44.4225 142.075 44.3291C142.188 44.229 142.339 44.179 142.525 44.179C142.719 44.179 142.869 44.229 142.976 44.3291C143.089 44.4225 143.176 44.5427 143.236 44.6895C143.296 44.8296 143.333 44.9864 143.346 45.1599C143.366 45.3268 143.376 45.4836 143.376 45.6304C143.376 45.7839 143.366 45.9474 143.346 46.1209C143.326 46.2944 143.283 46.4545 143.216 46.6013C143.156 46.7415 143.069 46.8582 142.956 46.9517C142.842 47.0451 142.689 47.0918 142.495 47.0918C142.309 47.0918 142.158 47.0451 142.045 46.9517C141.938 46.8516 141.855 46.7315 141.795 46.5913C141.735 46.4445 141.695 46.2877 141.675 46.1209C141.661 45.9474 141.655 45.7872 141.655 45.6404ZM140.904 45.6604C140.904 45.934 140.931 46.1909 140.984 46.4312C141.044 46.6714 141.137 46.8816 141.264 47.0618C141.391 47.242 141.558 47.3854 141.765 47.4922C141.972 47.5923 142.225 47.6423 142.525 47.6423C142.819 47.6423 143.066 47.5856 143.266 47.4722C143.466 47.3587 143.63 47.2119 143.757 47.0317C143.89 46.8449 143.983 46.6314 144.037 46.3911C144.097 46.1442 144.127 45.8906 144.127 45.6304C144.127 45.3568 144.1 45.0999 144.047 44.8596C144 44.6127 143.913 44.3992 143.787 44.219C143.667 44.0388 143.503 43.8954 143.296 43.7886C143.096 43.6818 142.839 43.6284 142.525 43.6284C142.218 43.6284 141.962 43.6852 141.755 43.7986C141.548 43.9054 141.381 44.0522 141.254 44.239C141.127 44.4259 141.037 44.6428 140.984 44.8897C140.931 45.1299 140.904 45.3868 140.904 45.6604ZM146.599 48.8435C146.599 48.69 146.609 48.5299 146.629 48.363C146.649 48.1895 146.689 48.0327 146.75 47.8926C146.816 47.7458 146.906 47.6257 147.02 47.5322C147.133 47.4321 147.283 47.3821 147.47 47.3821C147.664 47.3821 147.814 47.4321 147.921 47.5322C148.034 47.6257 148.121 47.7458 148.181 47.8926C148.241 48.0327 148.278 48.1895 148.291 48.363C148.311 48.5299 148.321 48.6867 148.321 48.8335C148.321 48.987 148.311 49.1505 148.291 49.324C148.271 49.4975 148.228 49.6576 148.161 49.8044C148.101 49.9446 148.014 50.0614 147.901 50.1548C147.787 50.2482 147.634 50.2949 147.44 50.2949C147.253 50.2949 147.103 50.2482 146.99 50.1548C146.883 50.0547 146.8 49.9346 146.739 49.7944C146.679 49.6476 146.639 49.4908 146.619 49.324C146.606 49.1505 146.599 48.9903 146.599 48.8435ZM145.849 48.8635C145.849 49.1371 145.875 49.394 145.929 49.6343C145.989 49.8745 146.082 50.0847 146.209 50.2649C146.336 50.4384 146.503 50.5785 146.709 50.6853C146.916 50.7854 147.17 50.8355 147.47 50.8355C147.764 50.8355 148.011 50.7821 148.211 50.6753C148.411 50.5619 148.575 50.415 148.701 50.2349C148.835 50.048 148.928 49.8345 148.982 49.5942C149.042 49.3473 149.072 49.0938 149.072 48.8335C149.072 48.5599 149.045 48.303 148.992 48.0628C148.945 47.8158 148.858 47.6023 148.731 47.4221C148.611 47.242 148.448 47.0985 148.241 46.9917C148.041 46.8849 147.784 46.8316 147.47 46.8316C147.163 46.8316 146.906 46.8883 146.699 47.0017C146.493 47.1085 146.326 47.2553 146.199 47.4421C146.072 47.629 145.982 47.8459 145.929 48.0928C145.875 48.333 145.849 48.5899 145.849 48.8635ZM147.25 43.4983L141.865 50.9355H142.726L148.101 43.4983H147.25Z" fill="#E3507A"/>
<path d="M108.072 45.6337L107.245 44.8064C106.94 44.5018 106.446 44.5018 106.142 44.8064C105.837 45.111 105.837 45.6048 106.142 45.9094L106.969 46.7367L104.791 48.9151H110.25V43.4553L108.072 45.6337Z" fill="#E3507A"/>
<rect x="0.59836" y="1.14134" width="171.986" height="66.4283" rx="8.64478" stroke="#E2E2E8" stroke-width="0.909977"/>
<defs>
<filter id="filter0_f" x="72.3691" y="30.4503" width="47.2063" height="43.1469" filterUnits="userSpaceOnUse" color-interpolation-filters="sRGB">
<feFlood flood-opacity="0" result="BackgroundImageFix"/>
<feBlend mode="normal" in="SourceGraphic" in2="BackgroundImageFix" result="shape"/>
<feGaussianBlur stdDeviation="8.58849" result="effect1_foregroundBlur"/>
</filter>
<linearGradient id="paint0_linear" x1="96.6387" y1="56.8702" x2="99.4791" y2="51.2243" gradientUnits="userSpaceOnUse">
<stop stop-color="#FF62B8" stop-opacity="0.01"/>
<stop offset="1" stop-color="#FE33D1"/>
</linearGradient>
<linearGradient id="paint1_linear" x1="68.9695" y1="39.9351" x2="76.6386" y2="59.9611" gradientUnits="userSpaceOnUse">
<stop stop-color="#A330FF" stop-opacity="0.01"/>
<stop offset="1" stop-color="#F97298"/>
</linearGradient>
</defs>
</svg>
