<svg width="174" height="69" viewBox="0 0 174 69" fill="none" xmlns="http://www.w3.org/2000/svg">
<path d="M30.3751 34.947L32.9502 34.0063L33.5907 31.5994L33.5688 31.5397L31.0341 32.4657L32.8603 25.589H27.6809L25.2925 34.5633L23.2984 35.2918L22.6395 37.7731L24.6321 37.0452L23.2245 42.3342H37.009L37.8927 39.0425H29.2875L30.3751 34.947Z" fill="#6F6C99"/>
<g filter="url(#filter0_f)">
<ellipse cx="84.8582" cy="42.9251" rx="7.19949" ry="4.16812" transform="rotate(-11 84.8582 42.9251)" fill="url(#paint0_linear)"/>
</g>
<path d="M59.3869 51.0933C59.3869 51.0933 61.9276 46.3834 64.8467 48.0052C67.7658 49.6269 68.1442 51.0933 70.7389 50.1203C73.3336 49.1472 73.4961 40.9236 75.7665 42.5453C78.0369 44.167 83.641 47.4105 88.5061 42.5453" stroke="url(#paint1_linear)" stroke-width="1.81995" stroke-linecap="round" stroke-linejoin="round"/>
<path opacity="0.3" d="M130.898 20.2693V28.066H136.413V26.6246H132.613V20.2693H130.898ZM138.094 21.7107V28.066H139.808V21.7107H142.145V20.2693H135.757V21.7107H138.094ZM148.242 22.89H149.902C149.851 22.4387 149.727 22.0383 149.531 21.6888C149.334 21.3394 149.083 21.0482 148.777 20.8153C148.479 20.575 148.136 20.393 147.751 20.2693C147.372 20.1455 146.968 20.0836 146.539 20.0836C145.942 20.0836 145.403 20.1892 144.922 20.4003C144.449 20.6114 144.049 20.9026 143.721 21.2739C143.394 21.6452 143.143 22.0819 142.968 22.5843C142.793 23.0793 142.706 23.618 142.706 24.2004C142.706 24.7682 142.793 25.2996 142.968 25.7947C143.143 26.2824 143.394 26.7083 143.721 27.0723C144.049 27.4363 144.449 27.7238 144.922 27.9349C145.403 28.1388 145.942 28.2407 146.539 28.2407C147.019 28.2407 147.459 28.1679 147.86 28.0223C148.26 27.8767 148.61 27.6656 148.908 27.3889C149.207 27.1123 149.447 26.7774 149.629 26.3843C149.811 25.9912 149.924 25.5508 149.967 25.063H148.308C148.242 25.5872 148.06 26.0094 147.762 26.3297C147.47 26.65 147.063 26.8102 146.539 26.8102C146.153 26.8102 145.825 26.7374 145.556 26.5918C145.286 26.4389 145.068 26.2387 144.901 25.9912C144.733 25.7437 144.609 25.4671 144.529 25.1613C144.457 24.8483 144.42 24.528 144.42 24.2004C144.42 23.8582 144.457 23.527 144.529 23.2067C144.609 22.8864 144.733 22.6025 144.901 22.3549C145.068 22.1001 145.286 21.9 145.556 21.7544C145.825 21.6015 146.153 21.525 146.539 21.525C146.75 21.525 146.95 21.5614 147.139 21.6342C147.336 21.6998 147.51 21.7944 147.663 21.9182C147.816 22.0419 147.944 22.1875 148.045 22.3549C148.147 22.5151 148.213 22.6935 148.242 22.89Z" fill="#4C4C66"/>
<path opacity="0.7" d="M64.2069 22.1609V23.2747C64.4544 23.2437 64.7174 23.2283 64.9959 23.2283C65.3259 23.2283 65.6301 23.2747 65.9086 23.3675C66.1973 23.45 66.4449 23.5841 66.6511 23.7697C66.8574 23.945 67.0224 24.1667 67.1462 24.4349C67.2699 24.6927 67.3318 24.9918 67.3318 25.3321C67.3318 25.6621 67.2648 25.9612 67.1307 26.2294C67.0069 26.4872 66.8368 26.7089 66.6202 26.8946C66.4036 27.0699 66.1509 27.2091 65.8622 27.3122C65.5734 27.4051 65.2692 27.4515 64.9495 27.4515C64.1966 27.4515 63.6242 27.2297 63.2323 26.7863C62.8404 26.3325 62.6342 25.7498 62.6136 25.0382H61.2986C61.2883 25.6054 61.3657 26.1108 61.5307 26.5542C61.706 26.9977 61.9535 27.3741 62.2732 27.6835C62.5929 27.9826 62.9797 28.2095 63.4334 28.3642C63.8872 28.5189 64.3926 28.5962 64.9495 28.5962C65.4651 28.5962 65.9498 28.5292 66.4036 28.3951C66.8677 28.2507 67.2699 28.0393 67.6102 27.7609C67.9506 27.4824 68.2187 27.1369 68.4147 26.7244C68.6209 26.3016 68.7241 25.8168 68.7241 25.2702C68.7241 24.6102 68.559 24.0378 68.229 23.5531C67.9093 23.0684 67.4143 22.7539 66.7439 22.6095V22.5785C67.1771 22.3826 67.538 22.0938 67.8268 21.7122C68.1156 21.3307 68.26 20.8923 68.26 20.3973C68.26 19.892 68.1723 19.4537 67.997 19.0824C67.832 18.7111 67.5999 18.4069 67.3008 18.1697C67.0018 17.9325 66.646 17.7572 66.2334 17.6437C65.8312 17.52 65.3929 17.4581 64.9185 17.4581C64.3719 17.4581 63.8872 17.5458 63.4644 17.7211C63.0519 17.8964 62.7064 18.1388 62.4279 18.4481C62.1495 18.7575 61.9329 19.1288 61.7782 19.562C61.6338 19.9951 61.5513 20.4747 61.5307 21.0006H62.8456C62.8456 20.6809 62.8869 20.3767 62.9694 20.0879C63.0519 19.7992 63.1756 19.5465 63.3406 19.3299C63.516 19.1133 63.7325 18.9432 63.9904 18.8194C64.2585 18.6853 64.5679 18.6183 64.9185 18.6183C65.4754 18.6183 65.9395 18.7679 66.3108 19.0669C66.6821 19.3557 66.8677 19.794 66.8677 20.3818C66.8677 20.6706 66.811 20.9284 66.6975 21.1553C66.5841 21.3822 66.4294 21.573 66.2334 21.7277C66.0478 21.8721 65.8261 21.9855 65.5683 22.068C65.3207 22.1402 65.0578 22.1763 64.7793 22.1763H64.5008C64.4493 22.1763 64.3977 22.1763 64.3462 22.1763C64.3049 22.1763 64.2585 22.1712 64.2069 22.1609ZM71.8282 20.3045C71.8282 20.026 71.8798 19.7837 71.9829 19.5774C72.0861 19.3712 72.2201 19.1958 72.3852 19.0515C72.5605 18.9071 72.7667 18.7988 73.0039 18.7266C73.2411 18.6544 73.4886 18.6183 73.7465 18.6183C74.2828 18.6183 74.7211 18.7627 75.0614 19.0515C75.412 19.3299 75.5874 19.7476 75.5874 20.3045C75.5874 20.8614 75.4172 21.2946 75.0769 21.6039C74.7365 21.9133 74.3034 22.068 73.7774 22.068C73.5093 22.068 73.2566 22.0319 73.0194 21.9597C72.7822 21.8876 72.5759 21.7793 72.4006 21.6349C72.2253 21.4905 72.0861 21.31 71.9829 21.0935C71.8798 20.8666 71.8282 20.6036 71.8282 20.3045ZM70.436 20.2581C70.436 20.7531 70.5752 21.2121 70.8537 21.6349C71.1321 22.0474 71.5034 22.3465 71.9675 22.5321C71.3487 22.7487 70.8743 23.0993 70.5443 23.5841C70.2142 24.0585 70.0492 24.6205 70.0492 25.2702C70.0492 25.8272 70.1421 26.317 70.3277 26.7399C70.5236 27.1524 70.7866 27.4979 71.1166 27.7763C71.457 28.0548 71.854 28.261 72.3078 28.3951C72.7616 28.5292 73.2514 28.5962 73.7774 28.5962C74.2828 28.5962 74.7572 28.524 75.2006 28.3796C75.6441 28.2353 76.0257 28.0238 76.3454 27.7454C76.6754 27.4566 76.9332 27.106 77.1188 26.6934C77.3148 26.2809 77.4128 25.8065 77.4128 25.2702C77.4128 24.5896 77.2529 24.0172 76.9332 23.5531C76.6135 23.0787 76.1236 22.7384 75.4636 22.5321C75.9277 22.3259 76.2938 22.0216 76.5619 21.6194C76.8404 21.2069 76.9796 20.7531 76.9796 20.2581C76.9796 19.9074 76.9177 19.5671 76.794 19.2371C76.6702 18.8968 76.4743 18.5977 76.2061 18.3399C75.9483 18.0717 75.608 17.8603 75.1851 17.7056C74.7623 17.5406 74.2518 17.4581 73.6537 17.4581C73.2308 17.4581 72.8235 17.52 72.4316 17.6437C72.05 17.7675 71.7096 17.948 71.4106 18.1852C71.1115 18.4224 70.8743 18.7163 70.699 19.0669C70.5236 19.4073 70.436 19.8043 70.436 20.2581ZM71.4415 25.3321C71.4415 25.0124 71.4982 24.7237 71.6117 24.4658C71.7354 24.208 71.9004 23.9863 72.1067 23.8006C72.3233 23.615 72.5708 23.4758 72.8492 23.383C73.138 23.2798 73.4422 23.2283 73.7619 23.2283C74.0713 23.2283 74.3601 23.285 74.6282 23.3984C74.9067 23.5016 75.1491 23.6459 75.3553 23.8316C75.5616 24.0172 75.7214 24.2389 75.8349 24.4968C75.9586 24.7443 76.0205 25.0176 76.0205 25.3167C76.0205 25.626 75.9638 25.9097 75.8503 26.1675C75.7472 26.4253 75.5925 26.6522 75.3863 26.8481C75.1903 27.0338 74.9531 27.1833 74.6747 27.2968C74.4065 27.3999 74.1074 27.4515 73.7774 27.4515C73.0968 27.4515 72.5347 27.2658 72.0912 26.8946C71.6581 26.513 71.4415 25.9922 71.4415 25.3321ZM80.0683 23.0272C80.0683 22.759 80.0683 22.4651 80.0683 22.1454C80.0787 21.8154 80.1044 21.4905 80.1457 21.1708C80.1973 20.8408 80.2643 20.5211 80.3468 20.2117C80.4396 19.9023 80.5685 19.6342 80.7335 19.4073C80.9089 19.1701 81.1254 18.9793 81.3833 18.8349C81.6411 18.6905 81.9556 18.6183 82.3269 18.6183C82.6982 18.6183 83.0127 18.6905 83.2706 18.8349C83.5284 18.9793 83.7398 19.1701 83.9048 19.4073C84.0801 19.6342 84.209 19.9023 84.2915 20.2117C84.3844 20.5211 84.4514 20.8408 84.4927 21.1708C84.5442 21.4905 84.57 21.8154 84.57 22.1454C84.5803 22.4651 84.5855 22.759 84.5855 23.0272C84.5855 23.4397 84.57 23.9038 84.5391 24.4194C84.5184 24.9248 84.4359 25.4043 84.2915 25.8581C84.1575 26.3016 83.9357 26.678 83.6264 26.9874C83.317 27.2968 82.8838 27.4515 82.3269 27.4515C81.77 27.4515 81.3369 27.2968 81.0275 26.9874C80.7181 26.678 80.4912 26.3016 80.3468 25.8581C80.2127 25.4043 80.1302 24.9248 80.0993 24.4194C80.0787 23.9038 80.0683 23.4397 80.0683 23.0272ZM78.6761 23.0426C78.6761 23.4448 78.6864 23.8625 78.707 24.2957C78.7276 24.7288 78.7792 25.1516 78.8617 25.5642C78.9442 25.9767 79.0628 26.3686 79.2175 26.7399C79.3722 27.1008 79.5836 27.4205 79.8518 27.699C80.1199 27.9774 80.4551 28.1992 80.8573 28.3642C81.2698 28.5189 81.7597 28.5962 82.3269 28.5962C82.9044 28.5962 83.3943 28.5189 83.7965 28.3642C84.1987 28.1992 84.5339 27.9774 84.802 27.699C85.0702 27.4205 85.2816 27.1008 85.4363 26.7399C85.591 26.3686 85.7096 25.9767 85.7921 25.5642C85.8746 25.1516 85.9262 24.7288 85.9468 24.2957C85.9674 23.8625 85.9777 23.4448 85.9777 23.0426C85.9777 22.6404 85.9674 22.2227 85.9468 21.7896C85.9262 21.3564 85.8746 20.9336 85.7921 20.5211C85.7096 20.1086 85.591 19.7167 85.4363 19.3454C85.2816 18.9741 85.0702 18.6493 84.802 18.3708C84.5339 18.0923 84.1936 17.8706 83.7811 17.7056C83.3788 17.5406 82.8941 17.4581 82.3269 17.4581C81.7597 17.4581 81.2698 17.5406 80.8573 17.7056C80.4551 17.8706 80.1199 18.0923 79.8518 18.3708C79.5836 18.6493 79.3722 18.9741 79.2175 19.3454C79.0628 19.7167 78.9442 20.1086 78.8617 20.5211C78.7792 20.9336 78.7276 21.3564 78.707 21.7896C78.6864 22.2227 78.6761 22.6404 78.6761 23.0426ZM87.9062 26.7089V28.426H89.6234V26.7089H87.9062ZM91.6084 21.341H92.9233C92.913 21.0109 92.944 20.6861 93.0162 20.3664C93.0987 20.0364 93.2276 19.7424 93.4029 19.4846C93.5782 19.2268 93.8 19.0205 94.0681 18.8658C94.3466 18.7008 94.6766 18.6183 95.0582 18.6183C95.3469 18.6183 95.6202 18.6647 95.878 18.7575C96.1359 18.8504 96.3576 18.9844 96.5432 19.1598C96.7392 19.3351 96.8939 19.5465 97.0073 19.794C97.1208 20.0312 97.1775 20.2993 97.1775 20.5984C97.1775 20.98 97.1156 21.3152 96.9919 21.6039C96.8784 21.8927 96.7031 22.1609 96.4659 22.4084C96.239 22.6559 95.9502 22.9034 95.5996 23.1509C95.2489 23.3881 94.8416 23.6511 94.3775 23.9399C93.9959 24.1667 93.6298 24.4091 93.2791 24.6669C92.9285 24.9248 92.614 25.2238 92.3355 25.5642C92.057 25.9045 91.825 26.3067 91.6394 26.7708C91.464 27.2246 91.3506 27.7763 91.299 28.426H98.4615V27.2658H92.8305C92.8924 26.9255 93.0213 26.6264 93.2173 26.3686C93.4235 26.1004 93.6659 25.8529 93.9443 25.626C94.2331 25.3992 94.5477 25.1877 94.888 24.9918C95.2283 24.7855 95.5687 24.5793 95.909 24.373C96.2493 24.1564 96.5793 23.9295 96.899 23.6923C97.2187 23.4551 97.5024 23.1922 97.7499 22.9034C97.9974 22.6043 98.1933 22.2691 98.3377 21.8979C98.4924 21.5266 98.5698 21.0986 98.5698 20.6139C98.5698 20.0982 98.4769 19.6445 98.2913 19.2526C98.116 18.8607 97.8736 18.5358 97.5642 18.278C97.2548 18.0098 96.8887 17.8087 96.4659 17.6747C96.0534 17.5303 95.6099 17.4581 95.1355 17.4581C94.558 17.4581 94.0423 17.5561 93.5885 17.752C93.1348 17.948 92.7532 18.2213 92.4438 18.5719C92.1447 18.9122 91.923 19.3196 91.7786 19.794C91.6342 20.2684 91.5775 20.7841 91.6084 21.341ZM102.896 22.1609V23.2747C103.144 23.2437 103.407 23.2283 103.685 23.2283C104.015 23.2283 104.319 23.2747 104.598 23.3675C104.886 23.45 105.134 23.5841 105.34 23.7697C105.547 23.945 105.712 24.1667 105.835 24.4349C105.959 24.6927 106.021 24.9918 106.021 25.3321C106.021 25.6621 105.954 25.9612 105.82 26.2294C105.696 26.4872 105.526 26.7089 105.309 26.8946C105.093 27.0699 104.84 27.2091 104.551 27.3122C104.263 27.4051 103.958 27.4515 103.639 27.4515C102.886 27.4515 102.313 27.2297 101.921 26.7863C101.53 26.3325 101.323 25.7498 101.303 25.0382H99.9878C99.9774 25.6054 100.055 26.1108 100.22 26.5542C100.395 26.9977 100.643 27.3741 100.962 27.6835C101.282 27.9826 101.669 28.2095 102.123 28.3642C102.576 28.5189 103.082 28.5962 103.639 28.5962C104.154 28.5962 104.639 28.5292 105.093 28.3951C105.557 28.2507 105.959 28.0393 106.299 27.7609C106.64 27.4824 106.908 27.1369 107.104 26.7244C107.31 26.3016 107.413 25.8168 107.413 25.2702C107.413 24.6102 107.248 24.0378 106.918 23.5531C106.598 23.0684 106.103 22.7539 105.433 22.6095V22.5785C105.866 22.3826 106.227 22.0938 106.516 21.7122C106.805 21.3307 106.949 20.8923 106.949 20.3973C106.949 19.892 106.861 19.4537 106.686 19.0824C106.521 18.7111 106.289 18.4069 105.99 18.1697C105.691 17.9325 105.335 17.7572 104.923 17.6437C104.52 17.52 104.082 17.4581 103.608 17.4581C103.061 17.4581 102.576 17.5458 102.154 17.7211C101.741 17.8964 101.395 18.1388 101.117 18.4481C100.839 18.7575 100.622 19.1288 100.467 19.562C100.323 19.9951 100.24 20.4747 100.22 21.0006H101.535C101.535 20.6809 101.576 20.3767 101.658 20.0879C101.741 19.7992 101.865 19.5465 102.03 19.3299C102.205 19.1133 102.422 18.9432 102.679 18.8194C102.948 18.6853 103.257 18.6183 103.608 18.6183C104.165 18.6183 104.629 18.7679 105 19.0669C105.371 19.3557 105.557 19.794 105.557 20.3818C105.557 20.6706 105.5 20.9284 105.387 21.1553C105.273 21.3822 105.119 21.573 104.923 21.7277C104.737 21.8721 104.515 21.9855 104.257 22.068C104.01 22.1402 103.747 22.1763 103.468 22.1763H103.19C103.138 22.1763 103.087 22.1763 103.035 22.1763C102.994 22.1763 102.948 22.1712 102.896 22.1609ZM113.364 24.6979H109.682L113.333 19.3299H113.364V24.6979ZM114.601 24.6979V17.4581H113.549L108.553 24.5896V25.8581H113.364V28.426H114.601V25.8581H116.086V24.6979H114.601Z" fill="#4C4C66"/>
<path d="M111.869 47.8525V45.6604H111.188V47.8525H109.006V48.5332H111.188V50.7253H111.869V48.5332H114.051V47.8525H111.869ZM116.71 46.6714V47.3921C116.87 47.3721 117.04 47.3621 117.22 47.3621C117.434 47.3621 117.631 47.3921 117.811 47.4522C117.998 47.5055 118.158 47.5923 118.291 47.7124C118.425 47.8259 118.532 47.9693 118.612 48.1428C118.692 48.3097 118.732 48.5032 118.732 48.7234C118.732 48.9369 118.688 49.1305 118.602 49.304C118.522 49.4708 118.411 49.6143 118.271 49.7344C118.131 49.8478 117.968 49.9379 117.781 50.0046C117.594 50.0647 117.397 50.0947 117.19 50.0947C116.703 50.0947 116.333 49.9513 116.079 49.6643C115.826 49.3707 115.692 48.9937 115.679 48.5332H114.828C114.821 48.9002 114.871 49.2272 114.978 49.5142C115.092 49.8011 115.252 50.0447 115.459 50.2449C115.665 50.4384 115.916 50.5852 116.209 50.6853C116.503 50.7854 116.83 50.8355 117.19 50.8355C117.524 50.8355 117.838 50.7921 118.131 50.7053C118.431 50.6119 118.692 50.4751 118.912 50.2949C119.132 50.1148 119.306 49.8912 119.432 49.6243C119.566 49.3507 119.633 49.037 119.633 48.6834C119.633 48.2563 119.526 47.8859 119.312 47.5723C119.105 47.2586 118.785 47.0551 118.351 46.9617V46.9417C118.632 46.8149 118.865 46.628 119.052 46.3811C119.239 46.1342 119.332 45.8506 119.332 45.5303C119.332 45.2033 119.276 44.9197 119.162 44.6795C119.055 44.4392 118.905 44.2424 118.712 44.0889C118.518 43.9354 118.288 43.822 118.021 43.7486C117.761 43.6685 117.477 43.6284 117.17 43.6284C116.817 43.6284 116.503 43.6852 116.229 43.7986C115.962 43.912 115.739 44.0689 115.559 44.2691C115.379 44.4693 115.238 44.7095 115.138 44.9898C115.045 45.27 114.991 45.5803 114.978 45.9207H115.829C115.829 45.7138 115.856 45.5169 115.909 45.3301C115.962 45.1432 116.042 44.9798 116.149 44.8396C116.263 44.6995 116.403 44.5894 116.57 44.5093C116.743 44.4225 116.943 44.3792 117.17 44.3792C117.531 44.3792 117.831 44.4759 118.071 44.6694C118.311 44.8563 118.431 45.1399 118.431 45.5203C118.431 45.7071 118.395 45.874 118.321 46.0208C118.248 46.1676 118.148 46.291 118.021 46.3911C117.901 46.4845 117.757 46.558 117.591 46.6113C117.431 46.6581 117.26 46.6814 117.08 46.6814H116.9C116.867 46.6814 116.833 46.6814 116.8 46.6814C116.773 46.6814 116.743 46.6781 116.71 46.6714ZM121.431 49.0137H120.58C120.634 49.6276 120.857 50.0847 121.251 50.385C121.645 50.6853 122.138 50.8355 122.732 50.8355C123.593 50.8355 124.217 50.5085 124.604 49.8545C124.998 49.1939 125.195 48.2496 125.195 47.0217C125.195 46.3478 125.128 45.7939 124.995 45.3601C124.868 44.9197 124.694 44.5727 124.474 44.3191C124.254 44.0655 123.997 43.8887 123.703 43.7886C123.41 43.6818 123.096 43.6284 122.762 43.6284C122.422 43.6284 122.108 43.6852 121.821 43.7986C121.534 43.912 121.288 44.0722 121.081 44.2791C120.874 44.4793 120.714 44.7228 120.6 45.0098C120.487 45.2901 120.43 45.6004 120.43 45.9407C120.43 46.2877 120.477 46.608 120.57 46.9016C120.67 47.1952 120.814 47.4455 121.001 47.6524C121.194 47.8592 121.431 48.0227 121.711 48.1428C121.992 48.2563 122.312 48.313 122.672 48.313C123.019 48.313 123.34 48.2262 123.633 48.0527C123.927 47.8726 124.154 47.6323 124.314 47.332L124.334 47.3521C124.307 48.2796 124.164 48.9703 123.903 49.4241C123.643 49.8712 123.253 50.0947 122.732 50.0947C122.392 50.0947 122.098 50.0013 121.851 49.8145C121.605 49.6276 121.464 49.3607 121.431 49.0137ZM124.184 46.0007C124.184 46.2076 124.15 46.4078 124.084 46.6013C124.017 46.7882 123.92 46.955 123.793 47.1018C123.667 47.242 123.513 47.3554 123.333 47.4421C123.153 47.5222 122.953 47.5623 122.732 47.5623C122.525 47.5623 122.335 47.5222 122.162 47.4421C121.995 47.3554 121.848 47.242 121.721 47.1018C121.601 46.9617 121.504 46.8015 121.431 46.6213C121.364 46.4412 121.331 46.2543 121.331 46.0608C121.331 45.8406 121.354 45.6304 121.401 45.4302C121.454 45.23 121.534 45.0532 121.641 44.8997C121.755 44.7395 121.898 44.6127 122.072 44.5193C122.252 44.4259 122.469 44.3792 122.722 44.3792C122.963 44.3792 123.173 44.4225 123.353 44.5093C123.533 44.596 123.683 44.7162 123.803 44.8696C123.93 45.0165 124.024 45.1866 124.084 45.3801C124.15 45.5737 124.184 45.7805 124.184 46.0007ZM126.483 49.6143V50.7253H127.594V49.6143H126.483ZM132.582 45.4402H133.433C133.379 44.853 133.179 44.4059 132.832 44.0989C132.485 43.7853 132.018 43.6284 131.431 43.6284C130.923 43.6284 130.503 43.7352 130.169 43.9487C129.836 44.1623 129.569 44.4459 129.369 44.7996C129.168 45.1533 129.025 45.5603 128.938 46.0208C128.858 46.4745 128.818 46.945 128.818 47.4321C128.818 47.8058 128.845 48.1929 128.898 48.5933C128.958 48.9937 129.075 49.3607 129.248 49.6943C129.422 50.028 129.669 50.3016 129.989 50.5151C130.31 50.7287 130.733 50.8355 131.26 50.8355C131.708 50.8355 132.081 50.762 132.382 50.6152C132.689 50.4618 132.932 50.2716 133.112 50.0447C133.299 49.8111 133.433 49.5542 133.513 49.2739C133.593 48.9937 133.633 48.7234 133.633 48.4631C133.633 48.1362 133.583 47.8325 133.483 47.5523C133.383 47.272 133.239 47.0284 133.052 46.8215C132.872 46.6147 132.645 46.4545 132.372 46.3411C132.105 46.221 131.801 46.1609 131.461 46.1609C131.074 46.1609 130.73 46.2343 130.43 46.3811C130.136 46.5279 129.889 46.7648 129.689 47.0918L129.669 47.0718C129.676 46.7982 129.702 46.5046 129.749 46.1909C129.796 45.8773 129.879 45.587 129.999 45.3201C130.126 45.0465 130.3 44.8229 130.52 44.6494C130.74 44.4693 131.03 44.3792 131.391 44.3792C131.731 44.3792 132.005 44.4759 132.211 44.6694C132.418 44.863 132.542 45.1199 132.582 45.4402ZM131.3 46.9116C131.541 46.9116 131.751 46.955 131.931 47.0418C132.111 47.1285 132.261 47.2453 132.382 47.3921C132.502 47.5322 132.588 47.7024 132.642 47.9026C132.702 48.0961 132.732 48.303 132.732 48.5232C132.732 48.7301 132.699 48.9303 132.632 49.1238C132.572 49.3106 132.482 49.4775 132.362 49.6243C132.241 49.7711 132.091 49.8879 131.911 49.9746C131.738 50.0547 131.534 50.0947 131.3 50.0947C131.067 50.0947 130.857 50.0547 130.67 49.9746C130.49 49.8879 130.336 49.7744 130.209 49.6343C130.089 49.4941 129.996 49.3273 129.929 49.1338C129.862 48.9403 129.829 48.7334 129.829 48.5132C129.829 48.293 129.859 48.0861 129.919 47.8926C129.986 47.6924 130.083 47.5222 130.209 47.3821C130.336 47.2353 130.49 47.1218 130.67 47.0418C130.85 46.955 131.06 46.9116 131.3 46.9116ZM135.341 49.0137H134.49C134.544 49.6276 134.767 50.0847 135.161 50.385C135.555 50.6853 136.048 50.8355 136.642 50.8355C137.503 50.8355 138.127 50.5085 138.514 49.8545C138.908 49.1939 139.105 48.2496 139.105 47.0217C139.105 46.3478 139.038 45.7939 138.905 45.3601C138.778 44.9197 138.604 44.5727 138.384 44.3191C138.164 44.0655 137.907 43.8887 137.613 43.7886C137.32 43.6818 137.006 43.6284 136.672 43.6284C136.332 43.6284 136.018 43.6852 135.731 43.7986C135.445 43.912 135.198 44.0722 134.991 44.2791C134.784 44.4793 134.624 44.7228 134.51 45.0098C134.397 45.2901 134.34 45.6004 134.34 45.9407C134.34 46.2877 134.387 46.608 134.48 46.9016C134.58 47.1952 134.724 47.4455 134.911 47.6524C135.104 47.8592 135.341 48.0227 135.621 48.1428C135.902 48.2563 136.222 48.313 136.582 48.313C136.929 48.313 137.25 48.2262 137.543 48.0527C137.837 47.8726 138.064 47.6323 138.224 47.332L138.244 47.3521C138.217 48.2796 138.074 48.9703 137.813 49.4241C137.553 49.8712 137.163 50.0947 136.642 50.0947C136.302 50.0947 136.008 50.0013 135.761 49.8145C135.515 49.6276 135.374 49.3607 135.341 49.0137ZM138.094 46.0007C138.094 46.2076 138.06 46.4078 137.994 46.6013C137.927 46.7882 137.83 46.955 137.703 47.1018C137.577 47.242 137.423 47.3554 137.243 47.4421C137.063 47.5222 136.863 47.5623 136.642 47.5623C136.435 47.5623 136.245 47.5222 136.072 47.4421C135.905 47.3554 135.758 47.242 135.631 47.1018C135.511 46.9617 135.414 46.8015 135.341 46.6213C135.274 46.4412 135.241 46.2543 135.241 46.0608C135.241 45.8406 135.264 45.6304 135.311 45.4302C135.364 45.23 135.445 45.0532 135.551 44.8997C135.665 44.7395 135.808 44.6127 135.982 44.5193C136.162 44.4259 136.379 44.3792 136.632 44.3792C136.873 44.3792 137.083 44.4225 137.263 44.5093C137.443 44.596 137.593 44.7162 137.713 44.8696C137.84 45.0165 137.934 45.1866 137.994 45.3801C138.06 45.5737 138.094 45.7805 138.094 46.0007ZM141.233 45.6404C141.233 45.4869 141.243 45.3268 141.263 45.1599C141.283 44.9864 141.324 44.8296 141.384 44.6895C141.45 44.5427 141.54 44.4225 141.654 44.3291C141.767 44.229 141.917 44.179 142.104 44.179C142.298 44.179 142.448 44.229 142.555 44.3291C142.668 44.4225 142.755 44.5427 142.815 44.6895C142.875 44.8296 142.912 44.9864 142.925 45.1599C142.945 45.3268 142.955 45.4836 142.955 45.6304C142.955 45.7839 142.945 45.9474 142.925 46.1209C142.905 46.2944 142.862 46.4545 142.795 46.6013C142.735 46.7415 142.648 46.8582 142.535 46.9517C142.421 47.0451 142.268 47.0918 142.074 47.0918C141.887 47.0918 141.737 47.0451 141.624 46.9517C141.517 46.8516 141.434 46.7315 141.374 46.5913C141.314 46.4445 141.273 46.2877 141.253 46.1209C141.24 45.9474 141.233 45.7872 141.233 45.6404ZM140.483 45.6604C140.483 45.934 140.509 46.1909 140.563 46.4312C140.623 46.6714 140.716 46.8816 140.843 47.0618C140.97 47.242 141.137 47.3854 141.344 47.4922C141.55 47.5923 141.804 47.6423 142.104 47.6423C142.398 47.6423 142.645 47.5856 142.845 47.4722C143.045 47.3587 143.209 47.2119 143.335 47.0317C143.469 46.8449 143.562 46.6314 143.616 46.3911C143.676 46.1442 143.706 45.8906 143.706 45.6304C143.706 45.3568 143.679 45.0999 143.626 44.8596C143.579 44.6127 143.492 44.3992 143.366 44.219C143.245 44.0388 143.082 43.8954 142.875 43.7886C142.675 43.6818 142.418 43.6284 142.104 43.6284C141.797 43.6284 141.54 43.6852 141.334 43.7986C141.127 43.9054 140.96 44.0522 140.833 44.239C140.706 44.4259 140.616 44.6428 140.563 44.8897C140.509 45.1299 140.483 45.3868 140.483 45.6604ZM146.178 48.8435C146.178 48.69 146.188 48.5299 146.208 48.363C146.228 48.1895 146.268 48.0327 146.328 47.8926C146.395 47.7458 146.485 47.6257 146.599 47.5322C146.712 47.4321 146.862 47.3821 147.049 47.3821C147.243 47.3821 147.393 47.4321 147.5 47.5322C147.613 47.6257 147.7 47.7458 147.76 47.8926C147.82 48.0327 147.857 48.1895 147.87 48.363C147.89 48.5299 147.9 48.6867 147.9 48.8335C147.9 48.987 147.89 49.1505 147.87 49.324C147.85 49.4975 147.807 49.6576 147.74 49.8044C147.68 49.9446 147.593 50.0614 147.48 50.1548C147.366 50.2482 147.213 50.2949 147.019 50.2949C146.832 50.2949 146.682 50.2482 146.569 50.1548C146.462 50.0547 146.378 49.9346 146.318 49.7944C146.258 49.6476 146.218 49.4908 146.198 49.324C146.185 49.1505 146.178 48.9903 146.178 48.8435ZM145.428 48.8635C145.428 49.1371 145.454 49.394 145.508 49.6343C145.568 49.8745 145.661 50.0847 145.788 50.2649C145.915 50.4384 146.082 50.5785 146.288 50.6853C146.495 50.7854 146.749 50.8355 147.049 50.8355C147.343 50.8355 147.59 50.7821 147.79 50.6753C147.99 50.5619 148.154 50.415 148.28 50.2349C148.414 50.048 148.507 49.8345 148.561 49.5942C148.621 49.3473 148.651 49.0938 148.651 48.8335C148.651 48.5599 148.624 48.303 148.571 48.0628C148.524 47.8158 148.437 47.6023 148.31 47.4221C148.19 47.242 148.027 47.0985 147.82 46.9917C147.62 46.8849 147.363 46.8316 147.049 46.8316C146.742 46.8316 146.485 46.8883 146.278 47.0017C146.071 47.1085 145.905 47.2553 145.778 47.4421C145.651 47.629 145.561 47.8459 145.508 48.0928C145.454 48.333 145.428 48.5899 145.428 48.8635ZM146.829 43.4983L141.444 50.9356H142.304L147.68 43.4983H146.829Z" fill="#2BB596"/>
<path d="M100.887 46.7367L100.06 47.564C99.7556 47.8686 99.2617 47.8686 98.9571 47.564C98.6525 47.2594 98.6525 46.7656 98.9571 46.461L99.7844 45.6337L97.606 43.4553H103.066V48.9151L100.887 46.7367Z" fill="#2BB596"/>
<rect x="0.693483" y="1.14134" width="171.986" height="66.4283" rx="8.64478" stroke="#E2E2E8" stroke-width="0.909977"/>
<defs>
<filter id="filter0_f" x="60.5688" y="21.4309" width="48.5789" height="42.9883" filterUnits="userSpaceOnUse" color-interpolation-filters="sRGB">
<feFlood flood-opacity="0" result="BackgroundImageFix"/>
<feBlend mode="normal" in="SourceGraphic" in2="BackgroundImageFix" result="shape"/>
<feGaussianBlur stdDeviation="8.58849" result="effect1_foregroundBlur"/>
</filter>
<linearGradient id="paint0_linear" x1="85.6247" y1="49.5111" x2="90.1508" y2="42.7727" gradientUnits="userSpaceOnUse">
<stop stop-color="#62CBFF" stop-opacity="0.01"/>
<stop offset="1" stop-color="#339CFE"/>
</linearGradient>
<linearGradient id="paint1_linear" x1="77.3716" y1="40.0152" x2="71.1884" y2="55.7352" gradientUnits="userSpaceOnUse">
<stop stop-color="#309AFF"/>
<stop offset="1" stop-color="#52AD97" stop-opacity="0.01"/>
</linearGradient>
</defs>
</svg>
