<svg width="19" height="20" viewBox="0 0 19 20" fill="none" xmlns="http://www.w3.org/2000/svg">
<path fill-rule="evenodd" clip-rule="evenodd" d="M0.630646 2.76891C0.630646 1.76378 1.44547 0.948959 2.4506 0.948959C3.45573 0.948959 4.27055 1.76378 4.27055 2.76891C4.27055 3.77405 3.45573 4.58887 2.4506 4.58887C1.44547 4.58887 0.630646 3.77405 0.630646 2.76891ZM0.630699 10.0487C0.630699 9.04361 1.44552 8.22879 2.45065 8.22879C3.45579 8.22879 4.27061 9.04361 4.27061 10.0487C4.27061 11.0539 3.45579 11.8687 2.45065 11.8687C1.44552 11.8687 0.630699 11.0539 0.630699 10.0487ZM9.73052 0.948978C8.72539 0.948978 7.91056 1.7638 7.91056 2.76893C7.91056 3.77406 8.72539 4.58889 9.73052 4.58889C10.7357 4.58889 11.5505 3.77406 11.5505 2.76893C11.5505 1.7638 10.7357 0.948978 9.73052 0.948978ZM7.91056 10.0487C7.91056 9.04361 8.72539 8.22879 9.73052 8.22879C10.7357 8.22879 11.5505 9.04361 11.5505 10.0487C11.5505 11.0539 10.7357 11.8687 9.73052 11.8687C8.72539 11.8687 7.91056 11.0539 7.91056 10.0487ZM17.0103 0.948978C16.0052 0.948978 15.1904 1.7638 15.1904 2.76893C15.1904 3.77406 16.0052 4.58889 17.0103 4.58889C18.0155 4.58889 18.8303 3.77406 18.8303 2.76893C18.8303 1.7638 18.0155 0.948978 17.0103 0.948978ZM15.1904 10.0487C15.1904 9.04361 16.0052 8.22879 17.0103 8.22879C18.0155 8.22879 18.8303 9.04361 18.8303 10.0487C18.8303 11.0539 18.0155 11.8687 17.0103 11.8687C16.0052 11.8687 15.1904 11.0539 15.1904 10.0487ZM2.45065 15.5086C1.44552 15.5086 0.630699 16.3234 0.630699 17.3286C0.630699 18.3337 1.44552 19.1485 2.45065 19.1485C3.45579 19.1485 4.27061 18.3337 4.27061 17.3286C4.27061 16.3234 3.45579 15.5086 2.45065 15.5086ZM7.91056 17.3286C7.91056 16.3234 8.72539 15.5086 9.73052 15.5086C10.7357 15.5086 11.5505 16.3234 11.5505 17.3286C11.5505 18.3337 10.7357 19.1485 9.73052 19.1485C8.72539 19.1485 7.91056 18.3337 7.91056 17.3286ZM17.0103 15.5086C16.0052 15.5086 15.1904 16.3234 15.1904 17.3286C15.1904 18.3337 16.0052 19.1485 17.0103 19.1485C18.0155 19.1485 18.8303 18.3337 18.8303 17.3286C18.8303 16.3234 18.0155 15.5086 17.0103 15.5086Z" fill="#6F6C99"/>
</svg>
