<svg width="52" height="10" viewBox="0 0 52 10" fill="none" xmlns="http://www.w3.org/2000/svg">
<path d="M0.113736 1.1305H1.50054L2.90918 7.09267H2.93102L4.50346 1.1305H5.90119L7.42995 7.09267H7.45179L8.90411 1.1305H10.2909L8.13973 8.92719H6.75293L5.19141 2.96502H5.16957L3.57529 8.92719H2.16664L0.113736 1.1305ZM13.2168 1.1305H14.6691L17.672 8.92719H16.2088L15.4772 6.86336H12.3651L11.6334 8.92719H10.2248L13.2168 1.1305ZM12.7363 5.82598H15.1168L13.9484 2.47363H13.9157L12.7363 5.82598ZM18.6329 1.1305H19.9979V7.74786H23.9617V8.92719H18.6329V1.1305ZM25.1216 1.1305H26.4866V7.74786H30.4504V8.92719H25.1216V1.1305ZM31.6103 1.1305H37.223V2.30983H32.9753V4.35182H36.9064V5.46563H32.9753V7.74786H37.2995V8.92719H31.6103V1.1305ZM37.9643 1.1305H44.2759V2.30983H41.7971V8.92719H40.4322V2.30983H37.9643V1.1305ZM46.2936 6.32829C46.2936 6.62676 46.3445 6.88156 46.4465 7.09267C46.5484 7.30379 46.6903 7.4785 46.8723 7.61682C47.0543 7.74786 47.2618 7.84613 47.4947 7.91165C47.735 7.96989 47.9934 7.99901 48.27 7.99901C48.5685 7.99901 48.8233 7.96625 49.0344 7.90073C49.2455 7.82793 49.4166 7.73694 49.5477 7.62774C49.6787 7.51854 49.7733 7.39478 49.8316 7.25647C49.8898 7.11087 49.9189 6.96528 49.9189 6.81968C49.9189 6.52121 49.8498 6.30281 49.7114 6.1645C49.5804 6.0189 49.4348 5.91698 49.2747 5.85874C48.998 5.75683 48.6741 5.66219 48.3028 5.57483C47.9388 5.48019 47.4875 5.36008 46.9488 5.21448C46.6139 5.12712 46.3336 5.01428 46.1079 4.87597C45.8895 4.73037 45.7148 4.57022 45.5838 4.3955C45.4528 4.22079 45.3581 4.03515 45.2999 3.8386C45.2489 3.64204 45.2234 3.44185 45.2234 3.23801C45.2234 2.8449 45.3035 2.50639 45.4637 2.22248C45.6311 1.93128 45.8495 1.69105 46.1189 1.50177C46.3882 1.3125 46.694 1.17418 47.0361 1.08683C47.3783 0.992188 47.7241 0.944869 48.0735 0.944869C48.4812 0.944869 48.8634 0.999468 49.2201 1.10866C49.5841 1.21058 49.9007 1.3671 50.1701 1.57821C50.4467 1.78933 50.6651 2.0514 50.8253 2.36443C50.9854 2.67018 51.0655 3.0269 51.0655 3.43457H49.7005C49.6641 2.93226 49.4931 2.57919 49.1873 2.37535C48.8815 2.16424 48.4921 2.05868 48.0189 2.05868C47.8587 2.05868 47.6949 2.07688 47.5275 2.11328C47.3601 2.1424 47.2072 2.197 47.0689 2.27707C46.9306 2.34987 46.8141 2.45179 46.7194 2.58283C46.6321 2.71386 46.5884 2.87766 46.5884 3.07421C46.5884 3.35085 46.6721 3.56924 46.8396 3.7294C47.0143 3.88227 47.24 3.99875 47.5166 4.07883C47.5457 4.08611 47.6585 4.11887 47.8551 4.17711C48.0589 4.22806 48.2846 4.2863 48.5321 4.35182C48.7796 4.41734 49.0199 4.48286 49.2528 4.54838C49.4931 4.60662 49.6641 4.65029 49.766 4.67941C50.0208 4.75949 50.2429 4.86869 50.4322 5.00701C50.6214 5.14532 50.7779 5.30548 50.9017 5.48747C51.0327 5.66219 51.1274 5.85146 51.1856 6.0553C51.2511 6.25913 51.2839 6.46297 51.2839 6.6668C51.2839 7.10359 51.1929 7.4785 51.0109 7.79153C50.8362 8.09729 50.6032 8.34844 50.312 8.54499C50.0208 8.74155 49.6896 8.88351 49.3183 8.97086C48.9471 9.0655 48.5685 9.11282 48.1827 9.11282C47.7386 9.11282 47.32 9.05822 46.9269 8.94902C46.5338 8.83983 46.1917 8.67239 45.9005 8.44672C45.6093 8.22104 45.3763 7.93349 45.2016 7.58406C45.0269 7.22735 44.9359 6.80876 44.9286 6.32829H46.2936Z" fill="#4C4C66"/>
</svg>
